<?xml version="1.0" standalone="no"?>
<!DOCTYPE svg PUBLIC "-//W3C//DTD SVG 1.1//EN" "http://www.w3.org/Graphics/SVG/1.1/DTD/svg11.dtd" >
<svg xmlns="http://www.w3.org/2000/svg" xmlns:xlink="http://www.w3.org/1999/xlink" version="1.1">
<metadata>
Created by FontForge 20200427 at Tue Oct 27 14:15:52 2015
 By www
Copyright (c) 2012 by Dominik Huber &#38; Moire'. All rights reserved.
</metadata>
<defs>
<font id="GTPressura-Light" horiz-adv-x="978" >
  <font-face 
    font-family="GT Pressura"
    font-weight="300"
    font-stretch="normal"
    units-per-em="2048"
    panose-1="2 0 5 6 3 0 0 2 0 4"
    ascent="1638"
    descent="-410"
    x-height="1024"
    cap-height="1434"
    bbox="-154 -457 1636 1946"
    underline-thickness="102"
    underline-position="-204"
    unicode-range="U+0020-FB04"
  />
<missing-glyph horiz-adv-x="748" 
d="M68 0v1365h544v-1365h-544zM136 68h408v1229h-408v-1229z" />
    <glyph glyph-name="uniFB01" unicode="fi" horiz-adv-x="1087" 
d="M10 934v39q0 17 12 29t29 12h178q21 0 21 20v31q0 172 96.5 277.5t251.5 105.5h315q17 0 29 -12t12 -29v-33q0 -17 -12 -29t-29 -12h-315q-111 0 -168 -76.5t-57 -191.5v-31q0 -20 20 -20h500q17 0 29 -12t12 -29v-932q0 -17 -12 -29t-29 -12h-41q-17 0 -29 12t-12 29
v831q0 21 -20 21h-398q-20 0 -20 -21v-831q0 -17 -12 -29t-29 -12h-41q-17 0 -29 12t-12 29v831q0 9 -6 15t-15 6h-178q-17 0 -29 12t-12 29z" />
    <glyph glyph-name="uniFB02" unicode="fl" horiz-adv-x="1110" 
d="M10 934v39q0 17 12 29t29 12h178q21 0 21 20v31q0 172 96.5 277.5t251.5 105.5h10q17 0 29 -12t12 -29v-33q0 -17 -12 -29t-29 -12h-10q-111 0 -168 -76.5t-57 -191.5v-31q0 -20 20 -20h441q20 0 20 20v373q0 17 12 29t29 12h41q17 0 29 -12t12 -29v-1366q0 -17 -12 -29
t-29 -12h-41q-17 0 -29 12t-12 29v831q0 21 -20 21h-441q-20 0 -20 -21v-831q0 -17 -12 -29t-29 -12h-41q-17 0 -29 12t-12 29v831q0 9 -6 15t-15 6h-178q-17 0 -29 12t-12 29z" />
    <glyph glyph-name=".notdef" horiz-adv-x="748" 
d="M68 0v1365h544v-1365h-544zM136 68h408v1229h-408v-1229z" />
    <glyph glyph-name="glyph1" horiz-adv-x="0" 
 />
    <glyph glyph-name="glyph2" horiz-adv-x="682" 
 />
    <glyph glyph-name="space" unicode=" " horiz-adv-x="471" 
 />
    <glyph glyph-name="exclam" unicode="!" horiz-adv-x="479" 
d="M143 33v129q0 12 10 22.5t23 10.5h127q13 0 23 -10.5t10 -22.5v-129q0 -13 -10 -23t-23 -10h-127q-14 0 -23.5 10t-9.5 23zM176 430v963q0 17 12 29t29 12h41q17 0 29 -12t12 -29v-963q0 -17 -12 -29t-29 -12h-41q-17 0 -29 12t-12 29z" />
    <glyph glyph-name="quotedbl" unicode="&#x22;" horiz-adv-x="833" 
d="M88 1032l78 146q6 10 1 20t-17 10h-21q-17 0 -29 12t-12 29v144q0 17 12 29t29 12h143q17 0 29 -12t12 -29v-154q0 -27 -5.5 -48t-10 -29.5t-16.5 -26.5l-82 -115l-3 -4q-4 -5 -4.5 -6t-4 -5.5t-5.5 -6l-6 -4.5t-7.5 -4.5t-8 -3.5t-10 -2.5t-11.5 -0.5h-20
q-19 0 -29.5 15.5t-1.5 33.5zM420 1032l78 146q6 10 0.5 20t-17.5 10h-20q-17 0 -29 12t-12 29v144q0 17 12 29t29 12h143q17 0 29 -12t12 -29v-154q0 -26 -6 -48t-10 -29t-17 -27l-82 -115q-1 -1 -4 -5.5t-4.5 -6.5t-5 -6t-6 -6t-7 -5t-9 -4.5t-10.5 -2.5t-13 -1h-20
q-19 0 -29.5 15.5t-1.5 33.5z" />
    <glyph glyph-name="numbersign" unicode="#" horiz-adv-x="1181" 
d="M84 393l6 37q3 17 17.5 29t31.5 12h103q20 0 24 21l74 409q4 21 -16 21h-103q-17 0 -27.5 12t-7.5 29l4 36q3 17 18 29t32 12h102q9 0 16.5 6t8.5 15l57 332q3 17 16.5 29t30.5 12h45q17 0 27.5 -12t7.5 -29l-57 -332q-4 -21 16 -21h238q20 0 24 21l57 332q3 17 17 29
t31 12h45q17 0 27 -12t7 -29l-57 -332q-3 -21 16 -21h103q17 0 26.5 -12t6.5 -29l-4 -36q-3 -17 -17 -29t-31 -12h-102q-21 0 -25 -21l-73 -409q-3 -21 16 -21h103q17 0 26 -12t6 -29l-6 -37q-3 -17 -16.5 -29t-30.5 -12h-102q-22 0 -25 -20l-53 -291q-3 -17 -16.5 -29
t-30.5 -12h-45q-17 0 -27.5 12t-7.5 29l53 291q3 20 -16 20h-238q-8 0 -15.5 -5.5t-8.5 -14.5l-54 -291q-3 -17 -16.5 -29t-30.5 -12h-45q-17 0 -27.5 12t-7.5 29l54 291q3 20 -17 20h-102q-17 0 -27.5 12t-7.5 29zM393 492q-3 -21 17 -21h237q21 0 25 21l73 409
q3 21 -16 21h-237q-9 0 -16.5 -6t-8.5 -15z" />
    <glyph glyph-name="dollar" unicode="$" horiz-adv-x="1044" 
d="M61 410v32q0 17 12 29t29 12h52q17 0 29 -12t12 -29v-32q0 -117 82 -206t225 -89q138 0 221.5 81.5t85.5 213.5q1 118 -80 192.5t-227 89.5q-183 19 -292.5 115.5t-109.5 257.5q0 153 90 252t228 125q20 3 20 20v74q0 17 12 29t29 12h45q17 0 29 -12t12 -29v-74
q0 -17 21 -20q144 -26 229.5 -130.5t85.5 -246.5v-27q0 -17 -12 -29t-29 -12h-49q-17 0 -29 12t-12 29v27q0 110 -76 182t-192 72q-87 0 -149.5 -37.5t-91 -94t-28.5 -122.5q0 -102 79.5 -164.5t189.5 -75.5q210 -25 325 -131t115 -284q0 -170 -101.5 -282t-254.5 -138
q-21 -3 -21 -21v-71q0 -17 -12 -29t-29 -12h-45q-17 0 -29 12t-12 29v71q0 18 -20 21q-161 27 -259 145t-98 275z" />
    <glyph glyph-name="percent" unicode="%" horiz-adv-x="1325" 
d="M131 993q-13 103 0 205q11 89 73 152t158 63q92 0 155 -58.5t75 -156.5q8 -62 8 -103t-8 -102q-10 -90 -71.5 -152.5t-158.5 -62.5q-93 0 -156 58t-75 157zM153.5 17.5q-11.5 17.5 0.5 39.5l854 1346q19 31 45 31h30q21 0 33 -19t0 -39l-852 -1345q-19 -31 -43 -31h-35
q-21 0 -32.5 17.5zM248 991q7 -42 35 -73t79 -31q46 0 77.5 30t37.5 74q16 101 0 211q-5 38 -34.5 69.5t-80.5 31.5q-46 0 -77 -29t-37 -72q-16 -110 0 -211zM672 338.5q0 40.5 8 101.5q11 89 73 152t158 63q92 0 155 -58.5t75 -156.5q7 -61 7 -101.5t-7 -102.5
q-10 -90 -71.5 -153t-158.5 -63q-93 0 -156 58.5t-75 157.5q-8 62 -8 102.5zM797 233q7 -42 35 -73t79 -31q46 0 77.5 30t37.5 74q16 101 0 211q-5 38 -34.5 69.5t-80.5 31.5q-46 0 -77 -29t-37 -72q-16 -110 0 -211z" />
    <glyph glyph-name="ampersand" unicode="&#x26;" horiz-adv-x="1239" 
d="M102 416q0 92 47 185.5t121 154.5q21 19 0 49q-94 133 -94 266q0 163 99 263t276 100q160 0 256 -106t96 -269v-31q0 -17 -12 -29t-29 -12h-41q-17 0 -29 12t-12 29v31q0 110 -62.5 187t-168.5 77q-123 0 -185.5 -68.5t-62.5 -183.5q0 -121 199 -348l348 -391q3 -5 9 -5
t9 7q14 29 20.5 84t6.5 196q0 17 12 29t29 12h31q17 0 29 -12t12 -29q0 -128 -7 -199.5t-15 -96t-30 -68.5q-9 -19 4 -35l129 -145q19 -20 8.5 -45t-42.5 -25h-47q-9 0 -15.5 1t-11.5 4t-7 4t-6 6l-5 5l-76 82q-14 15 -29 0q-128 -118 -317 -118t-313 126t-124 306zM229 416
q0 -135 89.5 -223.5t220.5 -88.5q78 0 141 29t100 68q11 11 2 22l-403 449q-7 7 -14 0q-28 -22 -48.5 -42.5t-42.5 -51.5t-33.5 -72t-11.5 -90z" />
    <glyph glyph-name="quotesingle" unicode="'" horiz-adv-x="423" 
d="M88 1032l78 146q6 10 1 20t-17 10h-21q-17 0 -29 12t-12 29v144q0 17 12 29t29 12h143q17 0 29 -12t12 -29v-154q0 -27 -5.5 -48t-10 -29.5t-16.5 -26.5l-82 -115l-3 -4q-4 -5 -4.5 -6t-4 -5.5t-5.5 -6l-6 -4.5t-7.5 -4.5t-8 -3.5t-10 -2.5t-11.5 -0.5h-20
q-19 0 -29.5 15.5t-1.5 33.5z" />
    <glyph glyph-name="parenleft" unicode="(" horiz-adv-x="698" 
d="M120 645.5q0 275.5 15 398.5q10 85 44.5 161.5t89.5 137.5t137 96.5t180 35.5h24q17 0 29 -12t12 -29v-48q0 -17 -12 -28.5t-29 -11.5h-24q-124 0 -211 -90.5t-107 -211.5q-20 -126 -20 -399t20 -399q6 -38 20.5 -77.5t41.5 -80t62 -72t85.5 -51.5t108.5 -20h37
q17 0 29 -12t12 -29v-47q0 -17 -12 -29t-29 -12h-37q-184 0 -305 116t-146 314q-15 124 -15 399.5z" />
    <glyph glyph-name="parenright" unicode=")" horiz-adv-x="698" 
d="M20 -96q0 17 12 29t29 12h37q58 0 108.5 20t85.5 51.5t62 72t41.5 80t20.5 77.5q20 126 20 399t-20 399q-20 121 -107 211.5t-211 90.5h-24q-17 0 -29 11.5t-12 28.5v48q0 17 12 29t29 12h24q98 0 180 -35.5t137 -96.5t89.5 -137.5t44.5 -161.5q15 -123 15 -398.5
t-15 -399.5q-25 -198 -146 -314t-305 -116h-37q-17 0 -29 12t-12 29v47z" />
    <glyph glyph-name="asterisk" unicode="*" horiz-adv-x="741" 
d="M105.5 1287.5q-4.5 16.5 3.5 29.5l22 39q7 13 24.5 17.5t30.5 -3.5l113 -67l-2 131q0 17 12 29t29 12h43q17 0 29 -12t12 -29l-2 -131l112 67q15 9 31.5 4.5t24.5 -18.5l22 -39q7 -14 2.5 -30.5t-18.5 -24.5l-115 -64l115 -63q15 -9 19.5 -26t-3.5 -30l-22 -39
q-7 -13 -25 -17.5t-31 3.5l-112 68l2 -131q0 -17 -12 -29t-29 -12h-43q-17 0 -29 12t-12 29l2 131l-113 -68q-15 -9 -31 -4.5t-24 18.5l-22 39q-7 13 -2 31t18 25l113 63l-113 64q-15 9 -19.5 25.5z" />
    <glyph glyph-name="plus" unicode="+" horiz-adv-x="1105" 
d="M102 492v43q0 17 12 28.5t29 11.5h326q20 0 20 21v326q0 17 12 29t29 12h45q17 0 29 -12t12 -29v-326q0 -9 6 -15t15 -6h326q17 0 29 -11.5t12 -28.5v-43q0 -17 -12 -29t-29 -12h-326q-9 0 -15 -6t-6 -15v-328q0 -17 -12 -29t-29 -12h-45q-17 0 -29 12t-12 29v328
q0 21 -20 21h-326q-17 0 -29 12t-12 29z" />
    <glyph glyph-name="comma" unicode="," horiz-adv-x="581" 
d="M170 41v143q0 17 12 29t29 12h143q17 0 29 -12t12 -29v-153q0 -26 -6 -48t-10.5 -30t-16.5 -27l-81 -114l-3 -4q-4 -5 -4.5 -6t-4 -5.5t-5.5 -6l-6 -4.5t-7.5 -4.5t-8 -3.5t-10 -2.5t-11.5 -0.5h-20q-19 0 -29.5 15.5t-1.5 33.5l78 145q6 11 0.5 21t-17.5 10h-20
q-17 0 -29 12t-12 29z" />
    <glyph glyph-name="hyphen" unicode="-" horiz-adv-x="927" 
d="M143 510v72q0 17 12 29t29 12h559q17 0 29 -12t12 -29v-72q0 -17 -12 -29t-29 -12h-559q-17 0 -29 12t-12 29z" />
    <glyph glyph-name="period" unicode="." horiz-adv-x="579" 
d="M154 41v143q0 17 12 29t29 12h143q17 0 29 -12t12 -29v-143q0 -17 -12 -29t-29 -12h-143q-17 0 -29 12t-12 29z" />
    <glyph glyph-name="slash" unicode="/" horiz-adv-x="937" 
d="M106 33l586 1390q11 31 39 31h43q21 0 31.5 -18t1.5 -39l-582 -1391q-13 -31 -43 -31h-43q-21 0 -31.5 17.5t-1.5 40.5z" />
    <glyph glyph-name="zero" unicode="0" horiz-adv-x="1064" 
d="M87 717.5q0 183.5 15 306.5q8 69 29 130.5t56.5 116t84 94t115 62.5t145.5 23q182 0 294 -113t137 -313q15 -126 14.5 -307t-14.5 -307q-10 -87 -40.5 -162t-82.5 -135t-131 -94.5t-177 -34.5q-182 0 -293.5 112.5t-136.5 313.5q-15 124 -15 307.5zM210 717
q0 -178 17 -307q7 -51 25 -99.5t52 -97.5t93 -79t135 -30q68 0 124 26.5t92 71t58.5 97t31.5 111.5q19 129 19 307t-19 307q-5 41 -16.5 79.5t-35.5 80.5t-57 73.5t-84 51.5t-113 20q-67 0 -123 -26t-93 -70t-59.5 -97t-29.5 -112q-17 -129 -17 -307z" />
    <glyph glyph-name="one" unicode="1" horiz-adv-x="743" 
d="M68 879v71q0 37 41 84l360 381q19 19 41 19h59q17 0 29 -12t12 -29v-1352q0 -17 -12 -29t-29 -12h-41q-17 0 -29 12t-12 29v1194q0 9 -6.5 11t-11.5 -3l-356 -381q-12 -13 -28.5 -6.5t-16.5 23.5z" />
    <glyph glyph-name="two" unicode="2" horiz-adv-x="946" 
d="M61 41v76q0 32 19 51l493 555q54 60 81.5 97.5t50 100.5t22.5 138q0 112 -67 191t-193 79q-114 0 -187 -83.5t-73 -186.5v-31q0 -17 -12 -29t-29 -12h-47q-17 0 -29 12t-12 29v31q0 164 112.5 277.5t276.5 113.5q167 0 276 -107.5t109 -283.5q0 -211 -172 -404l-449 -497
q-8 -9 -2.5 -21t19.5 -12h596q17 0 29 -12t12 -29v-43q0 -17 -12 -29t-29 -12h-742q-17 0 -29 12t-12 29z" />
    <glyph glyph-name="three" unicode="3" horiz-adv-x="995" 
d="M61 406v14q0 17 12 29t29 12h48q17 0 28.5 -12t11.5 -29v-14q0 -121 87 -206t215 -85q131 0 209.5 83.5t78.5 207.5q0 76 -28 137.5t-94 102t-162 40.5h-15q-17 0 -29 12t-12 29v45q0 17 12 29t29 12h15q116 0 185 70.5t69 175.5q0 108 -67.5 184t-190.5 76
q-124 0 -197.5 -79t-73.5 -181v-31q0 -17 -12 -29t-29 -12h-47q-17 0 -29 12t-12 29v31q0 164 115.5 277.5t284.5 113.5q166 0 277.5 -113t111.5 -278q0 -175 -119 -281q-29 -25 -2 -49q70 -60 110.5 -144.5t40.5 -178.5q0 -178 -120.5 -300t-298.5 -122q-181 0 -306 122.5
t-125 299.5z" />
    <glyph glyph-name="four" unicode="4" horiz-adv-x="1005" 
d="M31 328v26q0 39 32 101l521 950q9 17 17.5 23t25.5 6h84q17 0 29 -12t12 -29v-965q0 -20 20 -20h115q17 0 29 -12t12 -29v-39q0 -17 -12 -29t-29 -12h-115q-20 0 -20 -21v-225q0 -17 -12 -29t-29 -12h-39q-17 0 -29 12t-12 29v225q0 9 -6 15t-15 6h-538q-17 0 -29 12
t-12 29zM178 424q-10 -16 8 -16h424q21 0 21 20v799q0 9 -7 9.5t-10 -5.5z" />
    <glyph glyph-name="five" unicode="5" horiz-adv-x="1024" 
d="M102 358q0 20 11.5 30.5t29.5 10.5h43q24 0 32.5 -10.5t8.5 -30.5q0 -100 82 -176t191 -76q91 0 160.5 52.5t105 135.5t35.5 181q0 150 -83 253t-218 103q-48 0 -87 -16t-65 -45.5t-43 -57.5t-31 -65q-10 -22 -38 -22h-56q-17 0 -29 12t-12 29v727q0 17 12 29t29 12h647
q17 0 29 -12t12 -29v-41q0 -17 -12 -29t-29 -12h-548q-9 0 -15 -6t-6 -15v-379q0 -17 11.5 -24t33.5 8q73 59 197 59q187 0 304.5 -139.5t117.5 -339.5q0 -132 -50 -243t-147.5 -179.5t-224.5 -68.5q-165 0 -281.5 107.5t-116.5 266.5z" />
    <glyph glyph-name="six" unicode="6" horiz-adv-x="1036" 
d="M87.5 717q0.5 181 14.5 307q21 185 130.5 305.5t281.5 120.5q164 0 278.5 -113.5t114.5 -277.5q0 -17 -12 -29t-29 -12h-45q-17 0 -29 12t-12 29q0 106 -71 187t-195 81q-116 0 -192 -87.5t-89 -215.5q-9 -89 -6 -172q0 -12 10.5 -17.5t22.5 3.5q116 88 266 88
q170 0 289 -122t131 -298q3 -49 0 -107q-9 -175 -128.5 -295t-291.5 -120q-173 0 -287 120.5t-137 305.5q-15 126 -14.5 307zM236 397q11 -121 88 -203.5t202 -82.5t202.5 82.5t88.5 203.5q6 60 0 111q-7 76 -42 141t-100.5 107.5t-148.5 42.5q-128 0 -203 -78t-87 -213
q-4 -70 0 -111z" />
    <glyph glyph-name="seven" unicode="7" horiz-adv-x="860" 
d="M20 1352v41q0 17 12 29t29 12h738q17 0 29 -12t12 -29v-76q0 -16 -11 -41l-516 -1245q-14 -31 -39 -31h-47q-25 0 -34.5 16.5t-2.5 32.5l515 1241q3 8 -1.5 14.5t-13.5 6.5h-629q-17 0 -29 12t-12 29z" />
    <glyph glyph-name="eight" unicode="8" horiz-adv-x="1064" 
d="M86 406q0 94 40.5 177.5t111.5 145.5q25 22 -2 49q-117 117 -117 281q0 159 113 275t280 116t280 -116t113 -275q0 -164 -117 -281q-27 -27 -2 -49q71 -62 111.5 -145.5t40.5 -177.5q0 -181 -117 -301.5t-309 -120.5t-309 120.5t-117 301.5zM213 406q0 -128 83 -210.5
t216 -82.5t216 82.5t83 210.5t-79.5 206t-219.5 78t-219.5 -78t-79.5 -206zM246 1059q0 -111 73 -181.5t193 -70.5t193 70.5t73 181.5q0 106 -74.5 184t-191.5 78t-191.5 -78t-74.5 -184z" />
    <glyph glyph-name="nine" unicode="9" horiz-adv-x="1026" 
d="M74 928q-3 48 0 106q9 175 128.5 295.5t291.5 120.5q173 0 288.5 -120.5t137.5 -305.5q16 -130 17 -298t-17 -306q-30 -210 -136 -323t-282 -113q-108 0 -204 51.5t-154 142t-58 197.5q0 17 12 29t29 12h45q17 0 29 -12t12 -29q0 -106 86.5 -187.5t202.5 -81.5
q122 0 198 83t99 221q16 96 8 186q-2 14 -12.5 18t-24.5 -6q-124 -100 -276 -100q-170 0 -289 122t-131 298zM203 926q9 -58 29.5 -108t54.5 -92t87 -66.5t120 -24.5q131 0 203.5 79t86.5 212q6 50 0 110q-5 40 -17.5 78t-36 76.5t-55.5 67.5t-78.5 47t-102.5 18
q-67 0 -120 -24t-87 -66t-54.5 -91t-29.5 -106q-7 -48 0 -110z" />
    <glyph glyph-name="colon" unicode=":" horiz-adv-x="579" 
d="M170 41v143q0 17 12 29t29 12h143q17 0 29 -12t12 -29v-143q0 -17 -12 -29t-29 -12h-143q-17 0 -29 12t-12 29zM170 819v144q0 17 12 29t29 12h143q17 0 29 -12t12 -29v-144q0 -17 -12 -29t-29 -12h-143q-17 0 -29 12t-12 29z" />
    <glyph glyph-name="semicolon" unicode=";" horiz-adv-x="581" 
d="M166 41v143q0 17 12 29t29 12h143q17 0 29 -12t12 -29v-153q0 -26 -6 -48t-10.5 -30t-16.5 -27l-82 -114q-1 -1 -4 -5.5t-4.5 -6.5t-5 -6t-6 -6t-7 -5t-9 -4.5t-10.5 -2.5t-13 -1h-20q-19 0 -29.5 15.5t-1.5 33.5l78 145q6 11 0.5 21t-17.5 10h-20q-17 0 -29 12t-12 29z
M166 819v144q0 17 12 29t29 12h143q17 0 29 -12t12 -29v-144q0 -17 -12 -29t-29 -12h-143q-17 0 -29 12t-12 29z" />
    <glyph glyph-name="less" unicode="&#x3c;" horiz-adv-x="983" 
d="M61 494v38q0 29 31 46l742 446q14 9 30.5 -3t16.5 -36v-57q0 -24 -31 -43l-617 -365q-6 -3 -6 -8t6 -8l617 -365q31 -19 31 -43v-57q0 -24 -16.5 -36t-30.5 -3l-742 449q-31 17 -31 45z" />
    <glyph glyph-name="equal" unicode="=" horiz-adv-x="1105" 
d="M102 305v51q0 17 12 29t29 12h820q17 0 29 -12t12 -29v-51q0 -17 -12 -29t-29 -12h-820q-17 0 -29 12t-12 29zM102 670v51q0 17 12 29t29 12h820q17 0 29 -12t12 -29v-51q0 -17 -12 -29t-29 -12h-820q-17 0 -29 12t-12 29z" />
    <glyph glyph-name="greater" unicode="&#x3e;" horiz-adv-x="983" 
d="M102 39v57q0 24 31 43l617 365q6 3 6 8t-6 8l-617 365q-31 19 -31 43v57q0 24 17 36t31 3l741 -446q31 -17 31 -46v-38q0 -28 -31 -45l-741 -449q-14 -9 -31 3t-17 36z" />
    <glyph glyph-name="question" unicode="?" horiz-adv-x="925" 
d="M92 1044v15q0 165 105.5 280t261.5 115q165 0 270 -97.5t105 -256.5q0 -27 -4.5 -53.5t-10 -46t-18.5 -43t-20.5 -36.5t-26 -35t-26 -30t-29.5 -31t-27 -28q-7 -7 -41.5 -39t-59.5 -57.5t-48 -61.5t-23 -64v-145q0 -17 -12 -29t-29 -12h-41q-17 0 -29 12t-12 29v145
q0 82 37 125q42 49 102.5 104t61.5 56q3 3 19.5 18.5t25 24.5t24 27.5t24.5 34.5t19 37.5t14.5 46t4.5 51.5q0 104 -68 167.5t-182 63.5q-103 0 -173.5 -79t-70.5 -193v-15q0 -17 -12 -28.5t-29 -11.5h-41q-17 0 -29 11.5t-12 28.5zM346 33v129q0 12 10 22.5t23 10.5h127
q13 0 23 -10.5t10 -22.5v-129q0 -13 -9.5 -23t-23.5 -10h-127q-13 0 -23 10t-10 23z" />
    <glyph glyph-name="at" unicode="@" horiz-adv-x="1669" 
d="M123 553q0 160 53.5 299.5t147.5 241t230.5 159.5t295.5 58q204 0 362 -84.5t246 -241t88 -360.5q0 -218 -86 -350t-200 -132q-47 0 -74 9t-62 32q-27 18 -52 18t-64 -18q-84 -41 -160 -41q-99 0 -174 32t-119 89.5t-65 129t-21 157.5q0 182 103.5 300t275.5 118
q143 0 230 -80.5t87 -212.5v-318q0 -46 23 -74t61 -28q77 0 125.5 88t48.5 281q0 254 -151.5 411.5t-421.5 157.5q-122 0 -231.5 -48t-189.5 -132t-126.5 -204.5t-46.5 -258.5q0 -169 74 -310t210.5 -225t307.5 -84q125 0 217 43q20 9 34.5 0t14.5 -30v-27q0 -6 -1.5 -11.5
t-2.5 -9t-5 -8.5t-5.5 -6.5t-8 -6t-8 -5t-9.5 -5.5t-9 -5q-32 -19 -95.5 -32t-121.5 -13q-161 0 -297.5 58t-229.5 157.5t-145.5 234.5t-52.5 287zM602 551q0 -143 61.5 -224t188.5 -81q80 0 133 46.5t53 135.5v266q0 83 -53 126.5t-133 43.5q-116 0 -183 -86t-67 -227z" />
    <glyph glyph-name="A" unicode="A" 
d="M8 41l391 1362q3 13 14 22t25 9h103q14 0 25 -9t14 -22l391 -1362q1 -3 1 -7q0 -11 -8 -21q-10 -13 -34 -13h-51q-14 0 -25 9t-14 22l-101 346q-10 29 -39 29h-421q-29 0 -39 -29l-101 -346q-3 -13 -14 -22t-25 -9h-51q-23 0 -35 13q-8 9 -8 19q0 4 2 9zM293 555
q-1 -5 -1 -9q0 -14 17 -14h361q17 0 17 14q0 4 -1 9l-186 696q-3 13 -8 13h-5q-5 0 -8 -13z" />
    <glyph glyph-name="B" unicode="B" horiz-adv-x="1034" 
d="M133 41v1352q0 17 12 29t29 12h358q168 0 285 -108.5t117 -272.5q0 -75 -30.5 -151.5t-86.5 -125.5q-12 -10 -12 -23t12 -22q64 -52 105 -139t41 -174q0 -177 -126 -297.5t-305 -120.5h-358q-17 0 -29 12t-12 29zM260 152q0 -9 6 -15t15 -6h274q117 0 199 82t82 199
t-82 198.5t-199 81.5h-274q-21 0 -21 -20v-520zM260 834q0 -9 6 -15t15 -6h282q101 0 171.5 71.5t70.5 172.5q0 102 -70.5 174t-171.5 72h-282q-9 0 -15 -6t-6 -15v-448z" />
    <glyph glyph-name="C" unicode="C" horiz-adv-x="1112" 
d="M94 717.5q0 183.5 17 306.5q12 85 47 160.5t91 135.5t138 95t180 35q99 0 185 -35t145 -93.5t93 -136t34 -161.5v-8q0 -17 -12 -29t-29 -12h-55q-17 0 -29 12t-12 29v8q0 119 -89.5 207t-230.5 88q-137 0 -218.5 -85.5t-100.5 -209.5q-19 -126 -19 -307t19 -307
q5 -39 17.5 -77t38 -78t60 -70.5t87.5 -50t116 -19.5q79 0 142.5 28.5t101 74t57 95t19.5 97.5v8q0 17 12 29t29 12h55q17 0 29 -12t12 -29v-8q0 -129 -63.5 -227.5t-166.5 -148.5t-227 -50q-185 0 -307.5 114t-148.5 312q-17 124 -17 307.5z" />
    <glyph glyph-name="D" unicode="D" horiz-adv-x="1101" 
d="M133 41v1352q0 17 12 29t29 12h369q193 0 312 -116t144 -294q17 -123 17 -306t-17 -308q-26 -196 -147.5 -303t-308.5 -107h-369q-17 0 -29 12t-12 29zM264 152q0 -9 6 -15t15 -6h258q79 0 140 26t97 69.5t55.5 89t26.5 94.5q19 126 19 307t-19 307q-19 122 -100 200.5
t-219 78.5h-258q-9 0 -15 -6t-6 -15v-1130z" />
    <glyph glyph-name="E" unicode="E" horiz-adv-x="962" 
d="M133 41v1352q0 17 12 29t29 12h641q17 0 29 -12t12 -29v-50q0 -17 -12 -28.5t-29 -11.5h-530q-9 0 -15 -6t-6 -15v-465q0 -20 21 -20h508q17 0 29 -12t12 -29v-47q0 -17 -12 -29t-29 -12h-508q-9 0 -15 -6t-6 -15v-495q0 -9 6 -15t15 -6h534q17 0 29 -12t12 -29v-49
q0 -17 -12 -29t-29 -12h-645q-17 0 -29 12t-12 29z" />
    <glyph glyph-name="F" unicode="F" horiz-adv-x="917" 
d="M133 41v1352q0 17 12 29t29 12h641q17 0 29 -12t12 -29v-50q0 -17 -12 -28.5t-29 -11.5h-530q-9 0 -15 -6t-6 -15v-463q0 -20 21 -20h508q17 0 29 -12t12 -29v-49q0 -17 -12 -29t-29 -12h-508q-9 0 -15 -6t-6 -15v-606q0 -17 -12 -29t-29 -12h-49q-17 0 -29 12t-12 29z
" />
    <glyph glyph-name="G" unicode="G" horiz-adv-x="1118" 
d="M94 717.5q0 183.5 17 306.5q12 85 47 160.5t91 135.5t138 95t180 35q200 0 328.5 -123t128.5 -303v-8q0 -17 -12 -29t-29 -12h-55q-17 0 -29 12t-12 29v8q0 129 -88 212t-232 83q-137 0 -218.5 -85.5t-100.5 -209.5q-19 -126 -19 -307t19 -307q5 -39 17.5 -77t38 -78
t60 -70.5t87.5 -50t116 -19.5q64 0 118.5 19t92 50t64 70t39 79t12.5 77v221q0 20 -21 20h-249q-17 0 -29 12t-12 29v49q0 17 12 29t29 12h360q17 0 29 -12t12 -29v-331q0 -129 -63.5 -227.5t-166.5 -148.5t-227 -50q-185 0 -307.5 114t-148.5 312q-17 124 -17 307.5z" />
    <glyph glyph-name="H" unicode="H" horiz-adv-x="1105" 
d="M133 41v1352q0 17 12 29t29 12h49q17 0 29 -12t12 -29v-574q0 -20 21 -20h536q21 0 21 20v574q0 17 12 29t29 12h49q17 0 29 -12t12 -29v-1352q0 -17 -12 -29t-29 -12h-49q-17 0 -29 12t-12 29v606q0 9 -6 15t-15 6h-536q-9 0 -15 -6t-6 -15v-606q0 -17 -12 -29t-29 -12
h-49q-17 0 -29 12t-12 29z" />
    <glyph glyph-name="I" unicode="I" horiz-adv-x="397" 
d="M133 41v1352q0 17 12 29t29 12h49q17 0 29 -12t12 -29v-1352q0 -17 -12 -29t-29 -12h-49q-17 0 -29 12t-12 29z" />
    <glyph glyph-name="J" unicode="J" horiz-adv-x="940" 
d="M10 393v17q0 17 12 29t29 12h51q17 0 29 -12t12 -29v-17q0 -113 78.5 -195.5t198.5 -82.5q129 0 203.5 74t74.5 225v979q0 17 12 29t29 12h49q17 0 29 -12t12 -29v-1000q0 -185 -116 -297t-293 -112q-169 0 -289.5 120t-120.5 289z" />
    <glyph glyph-name="K" unicode="K" horiz-adv-x="970" 
d="M133 41v1352q0 17 12 29t29 12h49q17 0 29 -12t12 -29v-541q0 -7 7 -8t10 4l471 563q17 23 53 23h33q35 0 44.5 -26t-10.5 -48l-505 -596q-21 -28 -2 -49l540 -639q13 -13 13 -30q0 -8 -3 -18q-10 -28 -47 -28h-45q-7 0 -14 1.5t-11.5 3.5t-10 6t-7 5.5t-6.5 5.5l-4 5
l-489 585q-3 5 -10 4t-7 -8v-567q0 -17 -12 -29t-29 -12h-49q-17 0 -29 12t-12 29z" />
    <glyph glyph-name="L" unicode="L" horiz-adv-x="868" 
d="M133 41v1352q0 17 12 29t29 12h49q17 0 29 -12t12 -29v-1241q0 -9 6 -15t15 -6h501q17 0 29 -12t12 -29v-49q0 -17 -12 -29t-29 -12h-612q-17 0 -29 12t-12 29z" />
    <glyph glyph-name="M" unicode="M" horiz-adv-x="1396" 
d="M133 41v1352q0 17 12 29t29 12h141q35 0 43 -35l330 -1174q3 -9 10.5 -9t10.5 9l329 1174q8 35 43 35h142q17 0 29 -12t12 -29v-1352q0 -17 -12 -29t-29 -12h-45q-17 0 -29 12t-12 29v1180q0 6 -4 8.5t-8 1t-5 -5.5l-346 -1190q-11 -35 -43 -35h-65q-32 0 -43 35
l-347 1190q-1 4 -5 5.5t-7.5 -1t-3.5 -8.5v-1180q0 -17 -12 -29t-29 -12h-45q-17 0 -29 12t-12 29z" />
    <glyph glyph-name="N" unicode="N" horiz-adv-x="1085" 
d="M133 41v1352q0 17 12 29t29 12h107q17 0 25.5 -6.5t17.5 -28.5l489 -1166q3 -6 9.5 -4t6.5 9v1155q0 17 12 29t29 12h41q17 0 29 -12t12 -29v-1352q0 -17 -12 -29t-29 -12h-106q-17 0 -25.5 6.5t-17.5 28.5l-490 1175q-2 4 -6 5t-7 -1.5t-3 -7.5v-1165q0 -17 -12 -29
t-29 -12h-41q-17 0 -29 12t-12 29z" />
    <glyph glyph-name="O" unicode="O" horiz-adv-x="1138" 
d="M94 717.5q0 183.5 17 306.5q12 85 47 160.5t91 135.5t138 95t180 35q130 0 230.5 -61t155.5 -155.5t71 -209.5q17 -123 17 -306t-17 -308q-26 -198 -149 -312t-308 -114t-307.5 114t-148.5 312q-17 124 -17 307.5zM229 717q0 -181 19 -307q5 -39 17.5 -77t38 -78
t60 -70.5t87.5 -50t116 -19.5t116 19.5t87.5 50t60 70.5t38.5 78t18 77q19 126 19 307t-19 307q-19 124 -101 209.5t-219 85.5t-218.5 -85.5t-100.5 -209.5q-19 -126 -19 -307z" />
    <glyph glyph-name="P" unicode="P" horiz-adv-x="993" 
d="M133 41v1352q0 17 12 29t29 12h348q178 0 304 -126t126 -304q0 -179 -126 -305t-304 -126h-237q-21 0 -21 -20v-512q0 -17 -12 -29t-29 -12h-49q-17 0 -29 12t-12 29zM264 725q0 -20 21 -20h237q123 0 211 88t88 211t-88 211t-211 88h-237q-9 0 -15 -6t-6 -15v-557z" />
    <glyph glyph-name="Q" unicode="Q" horiz-adv-x="1138" 
d="M94 717.5q0 183.5 17 306.5q12 85 47 160.5t91 135.5t138 95t180 35q130 0 230.5 -61t155.5 -155.5t71 -209.5q17 -123 17 -306t-17 -308q-24 -195 -150 -312q-13 -13 -6 -28l105 -197q10 -21 -1 -39t-32 -18h-57q-25 0 -41 30l-86 154q-10 15 -49 4q-64 -20 -140 -20
q-185 0 -307.5 114t-148.5 312q-17 124 -17 307.5zM229 717q0 -181 19 -307q5 -39 17.5 -77t38 -78t60 -70.5t87.5 -50t116 -19.5t116 19.5t87.5 50t60 70.5t38.5 78t18 77q19 126 19 307t-19 307q-19 124 -101 209.5t-219 85.5t-218.5 -85.5t-100.5 -209.5
q-19 -126 -19 -307z" />
    <glyph glyph-name="R" unicode="R" horiz-adv-x="1042" 
d="M133 41v1352q0 17 12 29t29 12h348q178 0 304 -126t126 -304q0 -131 -62 -223.5t-181 -166.5q-23 -15 -23 -37q0 -13 8 -28l258 -488q7 -12 7 -24q0 -10 -5 -18q-11 -19 -41 -19h-45q-39 0 -59 41l-262 508q-12 24 -39 24h-223q-21 0 -21 -20v-512q0 -17 -12 -29t-29 -12
h-49q-17 0 -29 12t-12 29zM264 725q0 -20 21 -20h237q123 0 211 88t88 211t-88 211t-211 88h-237q-9 0 -15 -6t-6 -15v-557z" />
    <glyph glyph-name="S" unicode="S" horiz-adv-x="1024" 
d="M72 410v32q0 17 12 29t29 12h51q17 0 29 -12t12 -29v-32q0 -117 82 -206t225 -89q139 0 223 82t84 213q0 68 -23 117.5t-73 84t-111.5 57t-156.5 44.5q-52 12 -94.5 27t-91 43t-81.5 64t-55 92.5t-22 125.5q0 119 57 208t147 133t197 44q177 0 288 -111.5t111 -273.5v-27
q0 -17 -12 -29t-29 -12h-49q-17 0 -29 12t-12 29v27q0 110 -76 182t-192 72q-128 0 -198 -75t-70 -179q0 -34 9 -62t23 -48t37 -37.5t44.5 -28.5t53 -22t55 -17.5t58 -15.5t54.5 -15q91 -28 153 -58t115.5 -76.5t79.5 -114.5t26 -160q0 -129 -62.5 -228t-161.5 -148.5
t-216 -49.5q-194 0 -317 123.5t-123 302.5z" />
    <glyph glyph-name="T" unicode="T" horiz-adv-x="868" 
d="M4 1343v50q0 17 12 29t29 12h778q17 0 29 -12t12 -29v-50q0 -17 -12 -28.5t-29 -11.5h-301q-20 0 -20 -21v-1241q0 -17 -12 -29t-29 -12h-51q-17 0 -29 12t-12 29v1241q0 9 -6 15t-15 6h-303q-17 0 -29 11.5t-12 28.5z" />
    <glyph glyph-name="U" unicode="U" horiz-adv-x="1101" 
d="M111 424v969q0 17 12 29t29 12h49q17 0 29 -12t12 -29v-969q0 -125 90 -217t219 -92t219 92t90 217v969q0 17 12 29t29 12h49q17 0 29 -12t12 -29v-969q0 -183 -128.5 -311.5t-311.5 -128.5t-311.5 128.5t-128.5 311.5z" />
    <glyph glyph-name="V" unicode="V" horiz-adv-x="1005" 
d="M12 1384q-2 5 -2 11q0 11 8 23q10 16 33 16h60q31 0 39 -31l337 -1208q3 -13 13 -13h4q9 0 12 13l340 1208q8 31 39 31h59q24 0 34 -14q7 -10 7 -22q0 -6 -2 -12l-391 -1355q-9 -31 -39 -31h-123q-30 0 -39 31z" />
    <glyph glyph-name="W" unicode="W" horiz-adv-x="1419" 
d="M12 1393q-1 4 -1 7q1 12 9 22q10 12 33 12h49q34 0 39 -31l232 -1172q3 -12 12 -12h4q9 0 12 12l217 1172q6 31 39 31h70q33 0 39 -31l233 -1172q3 -12 13 -12h4q9 0 12 12l250 1172q5 31 39 31h49q24 0 34 -12q8 -10 8 -22q0 -3 -1 -7l-297 -1362q-6 -31 -39 -31h-115
q-32 0 -38 31l-216 1093q-2 8 -8 8t-8 -8l-203 -1093q-6 -31 -39 -31h-114q-33 0 -39 31z" />
    <glyph glyph-name="X" unicode="X" horiz-adv-x="1021" 
d="M37 57l356 672q10 16 2 29l-327 618q-10 21 0.5 39.5t31.5 18.5h64q26 0 39 -31l266 -512q3 -7 8 -7t8 7l267 512q13 31 39 31h63q21 0 32 -18.5t1 -39.5l-328 -618q-8 -13 2 -29l359 -672q5 -10 5 -19q0 -10 -6 -20q-11 -18 -32 -18h-72q-28 0 -41 31l-289 561
q-3 8 -8 8t-8 -8l-289 -561q-13 -31 -43 -31h-67q-21 0 -32 18q-6 9 -6 20q0 9 5 19z" />
    <glyph glyph-name="Y" unicode="Y" horiz-adv-x="905" 
d="M25 1376q-4 11 -4 21t5 19q10 18 31 18h66q28 0 39 -31l284 -731q3 -8 8.5 -8t8.5 8l280 731q11 31 39 31h66q21 0 32 -18q5 -9 5 -20q0 -9 -4 -20l-359 -882v-453q0 -17 -12 -29t-29 -12h-53q-17 0 -29 12t-12 29v451z" />
    <glyph glyph-name="Z" unicode="Z" horiz-adv-x="983" 
d="M70 41v96q0 16 10 33l665 1112q5 8 1.5 14.5t-13.5 6.5h-602q-17 0 -29 11.5t-12 28.5v50q0 17 12 29t29 12h721q17 0 29 -12t12 -29v-90q0 -16 -10 -33l-658 -1116q-5 -8 -1 -14.5t14 -6.5h634q17 0 29 -12t12 -29v-51q0 -17 -12 -29t-29 -12h-761q-17 0 -29 12t-12 29z
" />
    <glyph glyph-name="bracketleft" unicode="[" horiz-adv-x="598" 
d="M143 -143v1577q0 17 12 29t29 12h348q17 0 29 -12t12 -29v-33q0 -17 -12 -29t-29 -12h-253q-9 0 -15 -6t-6 -15v-1388q0 -9 6 -15t15 -6h258q17 0 29 -12t12 -29v-32q0 -17 -12 -29t-29 -12h-353q-17 0 -29 12t-12 29z" />
    <glyph glyph-name="backslash" unicode="\" horiz-adv-x="937" 
d="M109 1397q-9 22 1.5 39.5t30.5 17.5h43q28 0 39 -31l586 -1390q9 -23 -1.5 -40.5t-31.5 -17.5h-43q-30 0 -43 31z" />
    <glyph glyph-name="bracketright" unicode="]" horiz-adv-x="598" 
d="M20 -111q0 17 12 29t29 12h258q9 0 15 6t6 15v1388q0 9 -6 15t-15 6h-253q-17 0 -29 12t-12 29v33q0 17 12 29t29 12h348q17 0 29 -12t12 -29v-1577q0 -17 -12 -29t-29 -12h-353q-17 0 -29 12t-12 29v32z" />
    <glyph glyph-name="asciicircum" unicode="^" horiz-adv-x="1040" 
d="M195.5 1215q-6.5 17 3.5 26l241 229q25 25 62 25h45q34 0 59 -25l242 -229q10 -9 3 -26t-26 -17h-88q-30 0 -63 33l-137 133q-15 14 -29 0l-135 -133q-33 -33 -64 -33h-88q-19 0 -25.5 17z" />
    <glyph glyph-name="underscore" unicode="_" horiz-adv-x="1249" 
d="M41 -41q0 17 12 29t29 12h1085q17 0 29 -12t12 -29v-39q0 -17 -12 -29t-29 -12h-1085q-17 0 -29 12t-12 29v39z" />
    <glyph glyph-name="grave" unicode="`" horiz-adv-x="608" 
d="M105.5 1478q6.5 17 25.5 17h119q14 0 25.5 -6.5t15.5 -11t12 -15.5l156 -223q8 -11 -1 -26t-28 -15h-39q-36 0 -61 25l-221 229q-10 9 -3.5 26z" />
    <glyph glyph-name="a" unicode="a" horiz-adv-x="997" 
d="M88 307q0 131 90.5 215t247.5 84h293q20 0 20 21v80q0 99 -69.5 162t-177.5 63q-96 0 -168 -50.5t-72 -129.5q0 -16 -9 -24.5t-17 -9.5t-21 -1h-29q-41 0 -41 41q0 91 54 157.5t133.5 97.5t169.5 31q104 0 185 -35t132 -113.5t51 -190.5v-664q0 -17 -12 -29t-29 -12h-18
q-21 0 -29 14l-6.5 13t-7.5 14.5t-10.5 10.5t-16.5 5q-11 0 -37 -12t-54.5 -26.5t-77.5 -26.5t-101 -12q-180 0 -276.5 94t-96.5 233zM209 309q0 -104 69.5 -159.5t172.5 -55.5q141 0 217.5 66t76.5 190v123q0 21 -20 21h-299q-91 0 -154 -49t-63 -136z" />
    <glyph glyph-name="b" unicode="b" horiz-adv-x="1034" 
d="M133 41v1366q0 17 12 29t29 12h39q17 0 29 -12t12 -29v-363q0 -51 51 -51q15 0 42 13t71.5 25.5t101.5 12.5q158 0 267.5 -112.5t121.5 -276.5q5 -72 5 -143.5t-5 -142.5q-12 -164 -121.5 -276.5t-267.5 -112.5q-52 0 -92 10.5t-59.5 23t-41 23t-40.5 10.5q-23 0 -51 -33
q-14 -14 -29 -14h-33q-17 0 -29 12t-12 29zM258 369q3 -36 12 -70.5t28.5 -71t46.5 -64t70 -45.5t95 -18q71 0 125 26t83.5 68.5t45 85.5t20.5 89q8 72 8 143.5t-8 142.5q-5 46 -20.5 89t-45.5 85.5t-83.5 68.5t-124.5 26q-52 0 -95 -18t-70 -45.5t-46.5 -64t-28.5 -71
t-12 -70.5q-7 -72 -7 -143t7 -143z" />
    <glyph glyph-name="c" unicode="c" 
d="M92 369q-5 72 -5 143.5t5 142.5q12 167 123.5 278t290.5 111q167 0 276 -103t109 -245q0 -18 -9 -29.5t-26 -11.5h-47q-15 0 -27 8.5t-12 24.5q0 97 -71.5 166.5t-192.5 69.5q-73 0 -129.5 -26t-89 -68t-49.5 -86t-21 -89q-7 -72 -7 -143.5t7 -142.5q4 -45 21 -89
t49.5 -86t89 -68t129.5 -26q125 0 193.5 72t68.5 162q0 35 39 35h43q17 0 29 -12t12 -29q0 -142 -109 -245t-276 -103q-179 0 -290.5 111t-123.5 278z" />
    <glyph glyph-name="d" unicode="d" horiz-adv-x="1001" 
d="M92 369q-5 72 -5 143.5t5 142.5q12 164 121.5 276.5t267.5 112.5q57 0 101.5 -12.5t71.5 -25.5t42 -13q52 0 52 51v363q0 17 11.5 29t28.5 12h39q17 0 29 -12t12 -29v-1366q0 -17 -12 -29t-29 -12h-32q-15 0 -29 14q-28 33 -51 33q-22 0 -49.5 -16.5t-73 -33.5
t-111.5 -17q-158 0 -267.5 112.5t-121.5 276.5zM217 369q5 -46 20.5 -89t45.5 -85.5t84 -68.5t125 -26q65 0 114 26t76.5 68.5t42 85.5t18.5 89q7 72 7 143.5t-7 142.5q-4 46 -18.5 89t-42 85.5t-76.5 68.5t-114 26q-71 0 -124.5 -26t-83.5 -68.5t-46 -85.5t-21 -89
q-8 -72 -8 -143t8 -143z" />
    <glyph glyph-name="e" unicode="e" horiz-adv-x="1007" 
d="M92 369q-5 72 -5 143.5t5 142.5q12 167 126.5 278t293.5 111q171 0 290.5 -120t119.5 -289v-131q0 -17 -12 -29t-29 -12h-650q-20 0 -20 -21q0 -156 74.5 -249t226.5 -93q110 0 179 55.5t95 137.5q10 35 48 35h40q17 0 27.5 -10.5t7.5 -30.5q-19 -135 -129 -221t-268 -86
q-179 0 -293.5 111t-126.5 278zM215 598q0 -20 21 -20h552q21 0 21 20q0 153 -82.5 239.5t-212.5 86.5q-138 0 -218.5 -85.5t-80.5 -240.5z" />
    <glyph glyph-name="f" unicode="f" horiz-adv-x="700" 
d="M10 934v39q0 17 12 29t29 12h178q21 0 21 20v31q0 172 96.5 277.5t251.5 105.5h10q17 0 29 -12t12 -29v-33q0 -17 -12 -29t-29 -12h-10q-111 0 -168 -76.5t-57 -191.5v-31q0 -20 20 -20h234q17 0 29 -12t12 -29v-39q0 -17 -12 -29t-29 -12h-234q-20 0 -20 -21v-831
q0 -17 -12 -29t-29 -12h-41q-17 0 -29 12t-12 29v831q0 9 -6 15t-15 6h-178q-17 0 -29 12t-12 29z" />
    <glyph glyph-name="g" unicode="g" horiz-adv-x="991" 
d="M92 369q-5 71 -5 143t5 143q12 164 121.5 276.5t267.5 112.5q66 0 111.5 -17t73 -33.5t49.5 -16.5q23 0 51 33q14 14 29 14h32q17 0 29 -12t12 -29v-1044q0 -153 -102.5 -261t-261.5 -108q-130 0 -232.5 74t-130.5 206q-2 8 -2 15q0 33 39 33h33q24 0 35 -10.5t18 -30.5
q24 -68 83 -117t157 -49q110 0 177 75t67 173v41q0 51 -46 51q-14 0 -90.5 -25.5t-130.5 -25.5q-158 0 -267.5 112.5t-121.5 276.5zM217 369q5 -46 21 -89t46 -85.5t83.5 -68.5t124.5 -26q65 0 114 26t76.5 68.5t42 85.5t18.5 89q7 71 7 143t-7 143q-4 46 -18.5 89t-42 85.5
t-76.5 68.5t-114 26q-71 0 -125 -26t-84 -68.5t-45.5 -85.5t-20.5 -89q-9 -71 -9 -143t9 -143z" />
    <glyph glyph-name="h" unicode="h" horiz-adv-x="976" 
d="M133 41v1366q0 17 12 29t29 12h39q17 0 29 -12t12 -29v-371q0 -15 12.5 -29t32.5 -14q15 0 45 13t75.5 25.5t98.5 12.5q157 0 256.5 -103.5t99.5 -252.5v-647q0 -17 -11.5 -29t-28.5 -12h-39q-17 0 -29 12t-12 29v647q0 103 -70 169.5t-180 66.5q-109 0 -179.5 -65
t-70.5 -161v-657q0 -17 -12 -29t-29 -12h-39q-17 0 -29 12t-12 29z" />
    <glyph glyph-name="i" unicode="i" horiz-adv-x="438" 
d="M133 1307v108q0 12 10 22.5t23 10.5h106q13 0 23 -10.5t10 -22.5v-108q0 -13 -9.5 -23t-23.5 -10h-106q-14 0 -23.5 10t-9.5 23zM160 41v942q0 41 41 41h41q41 0 41 -41v-942q0 -41 -41 -41h-41q-41 0 -41 41z" />
    <glyph glyph-name="j" unicode="j" horiz-adv-x="473" 
d="M-154 -350q0 17 12 29t29 12h86q41 0 78 13.5t70 41t52.5 77.5t19.5 116v1044q0 41 40 41h41q41 0 41 -41v-1044q0 -161 -89.5 -265t-252.5 -104h-86q-17 0 -29 12t-12 29v39zM168 1307v108q0 12 10 22.5t23 10.5h106q13 0 23 -10.5t10 -22.5v-108q0 -13 -10 -23t-23 -10
h-106q-13 0 -23 10t-10 23z" />
    <glyph glyph-name="k" unicode="k" horiz-adv-x="899" 
d="M133 41v1366q0 17 12 29t29 12h39q17 0 29 -12t12 -29v-768q0 -7 6 -8.5t10 4.5l371 362q27 27 57 27h37q22 0 32.5 -13t8.5 -29t-12 -26l-408 -399q-26 -26 0 -49l439 -436q15 -14 15 -31q0 -7 -2 -15q-10 -26 -42 -26h-41q-30 0 -61 31l-394 397q-4 5 -10 4t-6 -8v-383
q0 -17 -12 -29t-29 -12h-39q-17 0 -29 12t-12 29z" />
    <glyph glyph-name="l" unicode="l" horiz-adv-x="389" 
d="M133 41v1366q0 17 12 29t29 12h41q17 0 29 -12t12 -29v-1366q0 -17 -12 -29t-29 -12h-41q-17 0 -29 12t-12 29z" />
    <glyph glyph-name="m" unicode="m" horiz-adv-x="1511" 
d="M123 41v942q0 17 12 29t29 12h33q14 0 28 -14q28 -33 51 -33q25 0 57 16.5t76 33.5t97 17q19 0 37 -2t35 -6.5t29.5 -8t28 -12.5t23.5 -13t22.5 -14.5t18 -13.5t18 -15t15.5 -13q23 -19 40 -19t40 19q32 26 58.5 43.5t85 36t126.5 18.5q156 0 241 -98.5t85 -257.5v-647
q0 -17 -12 -29t-29 -12h-39q-17 0 -29 12t-12 29v647q0 112 -61 174t-164 62q-96 0 -167 -68.5t-71 -167.5v-647q0 -17 -12 -29t-29 -12h-36q-17 0 -29 12t-12 29v647q0 86 -67.5 161t-170.5 75q-91 0 -158 -72.5t-67 -153.5v-657q0 -17 -12 -29t-29 -12h-39q-17 0 -29 12
t-12 29z" />
    <glyph glyph-name="n" unicode="n" horiz-adv-x="987" 
d="M123 41v942q0 17 12 29t29 12h33q14 0 28 -14q1 -2 5 -6.5t6 -6.5t5.5 -6t6.5 -6t7 -4t9 -3t10 -1q22 0 52 16.5t78 33.5t114 17q166 0 266.5 -93t100.5 -263v-647q0 -17 -12 -29t-29 -12h-39q-17 0 -29 12t-12 29v647q0 122 -70.5 179t-189.5 57q-110 0 -185 -65.5
t-75 -160.5v-657q0 -17 -12 -29t-29 -12h-39q-17 0 -29 12t-12 29z" />
    <glyph glyph-name="o" unicode="o" horiz-adv-x="1024" 
d="M92 369q-5 72 -5 143.5t5 142.5q12 167 123.5 278t290.5 111t290.5 -111t123.5 -278q5 -72 5 -143.5t-5 -142.5q-12 -167 -123.5 -278t-290.5 -111t-290.5 111t-123.5 278zM217 369q4 -45 21 -89t49.5 -86t89 -68t129.5 -26t129.5 26t89 68t49.5 86t21 89q7 72 7 143.5
t-7 142.5q-4 45 -21 89t-49.5 86t-89 68t-129.5 26t-129.5 -26t-89 -68t-49.5 -86t-21 -89q-7 -72 -7 -143t7 -143z" />
    <glyph glyph-name="p" unicode="p" horiz-adv-x="1001" 
d="M127 -369v1352q0 17 12 29t29 12h33q14 0 28 -14q28 -33 52 -33q22 0 49 16.5t72.5 33.5t111.5 17q158 0 267.5 -112.5t121.5 -276.5q5 -71 5 -143t-5 -143q-12 -164 -121.5 -276.5t-267.5 -112.5q-57 0 -102.5 13t-73.5 25.5t-43 12.5q-47 0 -47 -51v-349q0 -17 -12 -29
t-29 -12h-39q-17 0 -29 12t-12 29zM252 369q3 -36 12 -70.5t28.5 -71t46.5 -64t70 -45.5t95 -18q71 0 124.5 26t83.5 68.5t45.5 85.5t20.5 89q8 71 8 143t-8 143q-5 46 -20.5 89t-45 85.5t-83.5 68.5t-125 26q-52 0 -95 -18t-70 -45.5t-46.5 -64t-28.5 -71t-12 -70.5
q-7 -71 -7 -143t7 -143z" />
    <glyph glyph-name="q" unicode="q" horiz-adv-x="991" 
d="M92 369q-5 71 -5 143t5 143q12 164 121.5 276.5t267.5 112.5q66 0 111.5 -17t73 -33.5t49.5 -16.5q23 0 51 33q14 14 29 14h32q17 0 29 -12t12 -29v-1352q0 -17 -12 -29t-29 -12h-39q-17 0 -28.5 12t-11.5 29v349q0 51 -48 51q-15 0 -43 -12.5t-73.5 -25.5t-102.5 -13
q-158 0 -267.5 112.5t-121.5 276.5zM217 369q5 -46 21 -89t46 -85.5t83.5 -68.5t124.5 -26q65 0 114 26t76.5 68.5t42 85.5t18.5 89q7 71 7 143t-7 143q-4 46 -18.5 89t-42 85.5t-76.5 68.5t-114 26q-71 0 -125 -26t-84 -68.5t-45.5 -85.5t-20.5 -89q-9 -71 -9 -143t9 -143z
" />
    <glyph glyph-name="r" unicode="r" horiz-adv-x="671" 
d="M123 41v942q0 17 12 29t29 12h26q33 0 41 -41q1 -5 3 -17.5t4 -20t5.5 -16.5t9.5 -13.5t15 -4.5q14 0 29 11.5t34 28.5t46 33.5t76 28t112 11.5h4q17 0 29 -12t12 -29v-37q0 -17 -12 -29t-29 -12h-6q-62 0 -115 -17t-101 -55t-75.5 -109.5t-27.5 -170.5v-512
q0 -17 -12 -29t-29 -12h-39q-17 0 -29 12t-12 29z" />
    <glyph glyph-name="s" unicode="s" horiz-adv-x="919" 
d="M66 307v27q0 17 11.5 29t28.5 12h39q17 0 29 -12t12 -29v-27q0 -91 79.5 -150t195.5 -59q123 0 197.5 57t74.5 142q0 147 -282 188q-75 11 -132 29t-109.5 48.5t-81 81t-28.5 118.5q0 78 51.5 143.5t134 102t175.5 36.5q145 0 249.5 -84t104.5 -221q0 -43 -41 -43h-39
q-41 0 -41 43q0 78 -64.5 134.5t-168.5 56.5t-171 -50.5t-67 -117.5q0 -27 9 -49t29 -37.5t38 -26t49.5 -19t50 -12.5t52.5 -10q44 -8 77 -15t77.5 -20.5t77 -29t66.5 -39.5t55.5 -52.5t35.5 -68t14 -86.5q0 -133 -109.5 -225t-283.5 -92q-104 0 -193 38t-145.5 114
t-56.5 175z" />
    <glyph glyph-name="t" unicode="t" horiz-adv-x="737" 
d="M10 934v39q0 17 12 29t29 12h166q21 0 21 20v318q0 17 12 29t29 12h40q17 0 29 -12t12 -29v-318q0 -20 21 -20h258q17 0 29 -12t12 -29v-39q0 -17 -12 -29t-29 -12h-258q-9 0 -15 -6t-6 -15v-544q0 -110 44.5 -161.5t150.5 -51.5h104q17 0 29 -12t12 -29v-33
q0 -17 -12 -29t-29 -12h-104q-163 0 -240 77t-77 251v544q0 9 -6 15t-15 6h-166q-17 0 -29 12t-12 29z" />
    <glyph glyph-name="u" unicode="u" horiz-adv-x="976" 
d="M113 336v647q0 17 12 29t29 12h39q17 0 28.5 -12t11.5 -29v-647q0 -122 71 -179t190 -57q110 0 185 65.5t75 160.5v657q0 17 12 29t29 12h39q17 0 28.5 -12t11.5 -29v-942q0 -17 -11.5 -29t-28.5 -12h-33q-15 0 -29 14q-1 2 -5 6.5t-6 6.5t-5.5 6t-6.5 6t-7 4t-9 3t-10 1
q-22 0 -52 -16.5t-78 -33.5t-114 -17q-166 0 -266 92.5t-100 263.5z" />
    <glyph glyph-name="v" unicode="v" horiz-adv-x="962" 
d="M25 977q-3 6 -3 12q0 9 7 19q11 16 34 16h54q28 0 39 -31l307 -829q5 -12 16 -12t15 12l307 829q11 31 39 31h53q23 0 34 -16q7 -10 7 -20q0 -6 -2 -11l-363 -946q-12 -31 -39 -31h-104q-27 0 -39 31z" />
    <glyph glyph-name="w" unicode="w" horiz-adv-x="1302" 
d="M33 977q-2 5 -2 11q-1 11 7 21q10 15 34 15h41q31 0 39 -31l204 -735q3 -12 13.5 -12t13.5 12l197 735q8 31 38 31h66q31 0 39 -31l197 -735q3 -12 13 -12t13 12l205 735q8 31 39 31h41q23 0 33 -15q7 -10 8 -21q0 -5 -2 -11l-279 -946q-9 -31 -39 -31h-47q-30 0 -39 31
l-207 780q-1 6 -8 6t-8 -6l-207 -780q-9 -31 -39 -31h-47q-30 0 -39 31z" />
    <glyph glyph-name="x" unicode="x" horiz-adv-x="892" 
d="M56 22q-4 8 -4 16q0 14 11 30l306 464q9 15 2 27l-273 397q-17 25 -6.5 46.5t39.5 21.5h45q33 0 45 -20l217 -338q3 -6 8.5 -6t8.5 6l217 338q12 20 45 20h45q29 0 39.5 -21.5t-6.5 -46.5l-273 -397q-7 -12 2 -27l305 -464q11 -16 11 -30q0 -8 -4 -16q-10 -22 -39 -22
h-49q-34 0 -46 20l-247 390q-3 6 -8.5 6t-8.5 -6l-248 -390q-12 -20 -45 -20h-49q-30 0 -40 22z" />
    <glyph glyph-name="y" unicode="y" horiz-adv-x="905" 
d="M14 977q-2 6 -2 11q0 10 7 20q11 16 34 16h58q28 0 39 -31l315 -753q3 -8 8 -8t8 8l275 753q11 31 39 31h57q23 0 34 -16q7 -10 7 -20q0 -5 -2 -11l-520 -1356q-11 -31 -39 -31h-45q-23 0 -34.5 16t-4.5 32l151 411q6 16 2 27z" />
    <glyph glyph-name="z" unicode="z" horiz-adv-x="962" 
d="M82 41v63q0 21 4.5 32t22.5 32l598 717q6 7 2 13.5t-13 6.5h-553q-17 0 -29 12t-12 29v37q0 17 12 29t29 12h676q17 0 29 -12t12 -29v-59q0 -9 -2 -18t-4 -14.5t-8 -15t-7.5 -12t-10.5 -13.5l-9 -11l-581 -701q-6 -7 -2.5 -13.5t12.5 -6.5h592q17 0 29 -12t12 -29v-37
q0 -17 -12 -29t-29 -12h-717q-17 0 -29 12t-12 29z" />
    <glyph glyph-name="braceleft" unicode="{" horiz-adv-x="708" 
d="M82 625v61q0 25 41 41l22 10q37 16 37 41v266q0 115 47.5 211.5t145 158t227.5 61.5h25q17 0 29 -12t12 -29v-35q0 -17 -12 -29t-29 -12h-25q-140 0 -219.5 -89.5t-79.5 -224.5v-256q0 -47 -27 -81t-57 -52q30 -18 57 -52.5t27 -80.5v-276q0 -135 79.5 -224.5
t219.5 -89.5h45q17 0 29 -12t12 -29v-34q0 -17 -12 -29t-29 -12h-45q-98 0 -179 35.5t-133 95.5t-80 137t-28 162v286q0 25 -37 41l-22 11q-41 16 -41 41z" />
    <glyph glyph-name="bar" unicode="|" horiz-adv-x="460" 
d="M143 -102v1536q0 17 12 29t29 12h31q17 0 29 -12t12 -29v-1536q0 -17 -12 -29t-29 -12h-31q-17 0 -29 12t-12 29z" />
    <glyph glyph-name="braceright" unicode="}" horiz-adv-x="708" 
d="M20 -109q0 17 12 29t29 12h45q140 0 220 89.5t80 224.5v276q0 46 27 81t56 52q-30 18 -56.5 52t-26.5 81v256q0 135 -80 224.5t-220 89.5h-24q-17 0 -29 12t-12 29v35q0 17 12 29t29 12h24q130 0 227.5 -61.5t145 -158t47.5 -211.5v-266q0 -25 37 -41l23 -10
q41 -16 41 -41v-61q0 -25 -41 -41l-23 -11q-37 -16 -37 -41v-286q0 -85 -28 -162t-80 -137t-133 -95.5t-179 -35.5h-45q-17 0 -29 12t-12 29v34z" />
    <glyph glyph-name="asciitilde" unicode="~" horiz-adv-x="1122" 
d="M143 473v49q0 54 54.5 89.5t132.5 35.5q71 0 132 -14.5t98.5 -31.5t100 -31.5t136.5 -14.5q34 0 72 15.5t55 37.5q15 21 37 16.5t22 -34.5v-49q0 -55 -54 -90t-132 -35q-71 0 -132 14.5t-98.5 31.5t-100 31.5t-136.5 14.5q-34 0 -72 -15.5t-55 -37.5q-15 -21 -37.5 -16.5
t-22.5 34.5z" />
    <glyph glyph-name="uni00A0" unicode="&#xa0;" horiz-adv-x="471" 
 />
    <glyph glyph-name="exclamdown" unicode="&#xa1;" horiz-adv-x="479" 
d="M143 883v129q0 13 9.5 22.5t23.5 9.5h127q14 0 23.5 -9.5t9.5 -22.5v-129q0 -12 -10 -22.5t-23 -10.5h-127q-13 0 -23 10.5t-10 22.5zM176 -348v962q0 17 12 29t29 12h41q17 0 29 -12t12 -29v-962q0 -17 -12 -29t-29 -12h-41q-17 0 -29 12t-12 29z" />
    <glyph glyph-name="cent" unicode="&#xa2;" 
d="M92 369q-10 143 0 286q11 145 98.5 251t231.5 132q20 3 20 21v67q0 17 12 29t29 12h45q17 0 29 -12t12 -29v-67q0 -18 21 -21q137 -25 219 -118.5t82 -223.5q0 -18 -9 -29.5t-26 -11.5h-59q-15 0 -27 8.5t-12 24.5q0 88 -67 155.5t-185 67.5q-69 0 -123 -24t-85.5 -63.5
t-48.5 -82t-20 -86.5q-10 -143 0 -286q3 -44 20 -86.5t48.5 -82t85.5 -63.5t123 -24q117 0 183.5 67t66.5 154q0 35 39 35h55q17 0 29 -12t12 -29q0 -131 -82.5 -225.5t-218.5 -116.5q-21 -3 -21 -21v-67q0 -17 -12 -29t-29 -12h-45q-17 0 -29 12t-12 29v67q0 18 -20 21
q-143 23 -231 130t-99 253z" />
    <glyph glyph-name="sterling" unicode="&#xa3;" horiz-adv-x="1075" 
d="M82 41v55q0 17 12 29t29 12h10q62 0 107 85.5t45 207.5v217q0 9 -6 17t-15 8h-123q-17 0 -29 12t-12 29v41q0 17 12 29t29 12h123q21 0 21 20v291q0 148 88.5 248t230.5 100q143 0 235.5 -100.5t92.5 -247.5v-21q0 -17 -12 -29t-29 -12h-47q-17 0 -29 12t-12 29v21
q0 36 -10 71.5t-31.5 69.5t-62 55t-95.5 21t-94 -21t-58.5 -55.5t-27.5 -69t-8 -71.5v-291q0 -20 20 -20h316q17 0 29 -12t12 -29v-41q0 -17 -12 -29t-29 -12h-316q-9 0 -14.5 -7.5t-5.5 -17.5v-217q0 -89 -21.5 -169t-50.5 -114q-6 -6 -3.5 -11t11.5 -5h580q17 0 29 -12
t12 -29v-49q0 -17 -12 -29t-29 -12h-807q-19 0 -31 12t-12 29z" />
    <glyph glyph-name="currency" unicode="&#xa4;" horiz-adv-x="1359" 
d="M144 186.5q0 16.5 12 28.5l147 150q-90 117 -90 266q0 142 86 262l-143 145q-12 12 -12 29t12 29l28 28q12 12 29 12t29 -12l143 -145q125 94 270 94q146 0 267 -90l143 141q12 12 28.5 12t28.5 -12l29 -28q12 -12 12 -29t-12 -29l-143 -143q90 -121 90 -264
q0 -148 -92 -271l145 -145q12 -12 12 -28.5t-12 -28.5l-29 -29q-12 -12 -28.5 -12t-28.5 12l-147 145q-120 -86 -263 -86q-146 0 -264 88l-149 -147q-12 -12 -29 -12t-29 12l-28 29q-12 12 -12 28.5zM332 631q0 -134 94 -228t227 -94t227.5 94.5t94.5 227.5t-94 227t-228 94
q-133 0 -227 -94t-94 -227z" />
    <glyph glyph-name="yen" unicode="&#xa5;" horiz-adv-x="937" 
d="M25 1376q-9 23 1 40.5t31 17.5h66q28 0 39 -31l284 -731q3 -8 8.5 -8t8.5 8q63 165 151.5 395t128.5 336q11 31 39 31h66q21 0 31.5 -17.5t1.5 -40.5l-215 -530q-3 -9 1 -17t13 -8h111q17 0 28.5 -12t11.5 -29v-32q0 -17 -11.5 -29t-28.5 -12h-168q-15 0 -19 -11l-24 -61
q-4 -9 0.5 -17t13.5 -8h197q17 0 28.5 -12t11.5 -29v-32q0 -17 -11.5 -29t-28.5 -12h-248q-9 0 -15 -6t-6 -15v-434q0 -17 -12 -29t-29 -12h-53q-17 0 -29 12t-12 29v434q0 21 -20 21h-252q-17 0 -29 12t-12 29v32q0 17 12 29t29 12h198q9 0 14 8t1 17l-25 61q-4 11 -18 11
h-170q-17 0 -29 12t-12 29v32q0 17 12 29t29 12h112q9 0 13.5 8t1.5 17z" />
    <glyph glyph-name="brokenbar" unicode="&#xa6;" horiz-adv-x="442" 
d="M133 41v547q0 17 12 29t29 12h45q17 0 29 -12t12 -29v-547q0 -17 -12 -29t-29 -12h-45q-17 0 -29 12t-12 29zM133 860v547q0 17 12 29t29 12h45q17 0 29 -12t12 -29v-547q0 -17 -12 -29t-29 -12h-45q-17 0 -29 12t-12 29z" />
    <glyph glyph-name="section" unicode="&#xa7;" horiz-adv-x="1085" 
d="M109 629q0 72 39 139t106 115q22 15 24.5 36.5t-16.5 43.5q-59 72 -59 178q0 148 99 232.5t241 84.5q148 0 238.5 -90t90.5 -242v-61q0 -17 -12 -29t-29 -12h-43q-17 0 -28.5 12t-11.5 29v61q0 84 -53.5 147.5t-151.5 63.5q-104 0 -153.5 -54t-49.5 -138q0 -89 90 -168
q74 -67 196.5 -175.5t186.5 -166.5q131 -118 131 -270q0 -75 -40.5 -152.5t-100.5 -122.5q-19 -14 -21 -35t15 -43q51 -64 51 -155q0 -145 -99 -229.5t-241 -84.5q-152 0 -245 85t-93 247v84q0 17 12 29t29 12h43q17 0 29 -12t12 -29v-84q0 -95 57.5 -154t155.5 -59
q90 0 145.5 47t55.5 148q0 80 -101 166q-177 149 -379 335q-65 61 -92.5 122t-27.5 149zM233 623q0 -37 20 -80t58 -78l338 -303q13 -12 35 -12t37 12q41 35 68.5 92.5t27.5 107.5q0 37 -21 84.5t-65 88.5l-309 278q-35 30 -74 0q-47 -41 -81 -91.5t-34 -98.5z" />
    <glyph glyph-name="dieresis" unicode="&#xa8;" horiz-adv-x="815" 
d="M131 1307v108q0 12 10 22.5t23 10.5h106q13 0 23 -10.5t10 -22.5v-108q0 -13 -9.5 -23t-23.5 -10h-106q-14 0 -23.5 10t-9.5 23zM481 1307v108q0 12 10 22.5t23 10.5h107q13 0 22.5 -10.5t9.5 -22.5v-108q0 -14 -9.5 -23.5t-22.5 -9.5h-107q-14 0 -23.5 10t-9.5 23z" />
    <glyph glyph-name="copyright" unicode="&#xa9;" horiz-adv-x="1597" 
d="M82 717q0 145 57 278t153 229t229 153t278 57t278 -57t229 -153t153 -229t57 -278t-57 -278t-153 -229t-229 -153t-278 -57t-278 57t-229 153t-153 229t-57 278zM197 717q0 -122 48 -233t129 -192t192 -129t233 -48q121 0 232.5 48t192 129t128 192t47.5 233t-47.5 233
t-128 191.5t-191.5 128t-233 47.5t-233 -47.5t-192 -128t-129 -192t-48 -232.5zM463 594q-10 116 0 233q13 136 100 226t232 90q137 0 225 -81t88 -202q0 -33 -27 -33h-51q-33 0 -33 25q0 71 -56.5 125.5t-145.5 54.5q-93 0 -151.5 -64.5t-65.5 -140.5q-10 -117 0 -233
q7 -74 65 -133.5t152 -59.5q89 0 144.5 48.5t55.5 117.5q0 27 33 27h47q13 0 23 -10t10 -23q0 -121 -88 -201.5t-225 -80.5q-145 0 -232 89t-100 226z" />
    <glyph glyph-name="ordfeminine" unicode="&#xaa;" horiz-adv-x="641" 
d="M102 1081q0 67 46 115.5t124 48.5h136q10 0 10 10v25q0 34 -28 58t-75 24q-43 0 -71.5 -16t-28.5 -43q0 -17 -22 -17h-46q-20 0 -20 21q0 66 57.5 104.5t130.5 38.5q79 0 137 -50t58 -134v-318q0 -9 -6.5 -14.5t-14.5 -5.5h-30q-9 0 -15 6q-2 2 -4.5 6.5t-4 7.5t-5 5.5
t-6.5 2.5q-2 0 -46 -19t-89 -19q-90 0 -138.5 46.5t-48.5 116.5zM195 1081q0 -36 23 -55.5t67 -19.5q75 0 106 29.5t31 86.5v25q0 10 -10 10h-140q-37 0 -57 -21t-20 -55z" />
    <glyph glyph-name="guillemotleft" unicode="&#xab;" horiz-adv-x="1007" 
d="M104 532.5q0 11.5 11 28.5l196 330q19 31 51 31h39q31 0 41.5 -18.5t-8.5 -49.5l-174 -297q-9 -13 -9 -23.5t9 -25.5l174 -297q19 -31 8.5 -49.5t-41.5 -18.5h-39q-32 0 -51 31l-196 330q-11 17 -11 28.5zM436 532.5q0 11.5 10 28.5l197 330q19 31 51 31h39
q31 0 41.5 -18.5t-8.5 -49.5l-174 -297q-9 -13 -9 -23.5t9 -25.5l174 -297q19 -31 8.5 -49.5t-41.5 -18.5h-39q-32 0 -51 31l-197 330q-10 17 -10 28.5z" />
    <glyph glyph-name="logicalnot" unicode="&#xac;" horiz-adv-x="1085" 
d="M102 532v41q0 17 12 29t29 12h799q17 0 29 -12t12 -29v-348q0 -17 -12 -29t-29 -12h-41q-17 0 -29 12t-12 29v246q0 21 -20 21h-697q-17 0 -29 11.5t-12 28.5z" />
    <glyph glyph-name="uni00AD" unicode="&#xad;" horiz-adv-x="927" 
d="M143 510v72q0 17 12 29t29 12h559q17 0 29 -12t12 -29v-72q0 -17 -12 -29t-29 -12h-559q-17 0 -29 12t-12 29z" />
    <glyph glyph-name="registered" unicode="&#xae;" horiz-adv-x="1597" 
d="M82 717q0 145 57 278t153 229t229 153t278 57t278 -57t229 -153t153 -229t57 -278t-57 -278t-153 -229t-229 -153t-278 -57t-278 57t-229 153t-153 229t-57 278zM197 717q0 -122 48 -233t129 -192t192 -129t233 -48q121 0 232.5 48t192 129t128 192t47.5 233t-47.5 233
t-128 191.5t-191.5 128t-233 47.5t-233 -47.5t-192 -128t-129 -192t-48 -232.5zM543 332v772q0 13 10 23t22 10h275q112 0 191 -79t79 -192q0 -73 -35 -134t-96 -97q-5 -3 -14 -8t-12 -6.5t-7.5 -6t-4.5 -8t1.5 -9t5.5 -13.5l138 -236q11 -19 2 -34t-33 -15h-45
q-13 0 -22 4.5t-13.5 10.5t-11.5 18l-139 239q-8 21 -31 21h-131q-6 0 -11.5 -5t-5.5 -12v-243q0 -14 -9.5 -23.5t-22.5 -9.5h-48q-12 0 -22 10t-10 23zM655 721q0 -7 5.5 -11.5t11.5 -4.5h178q67 0 113.5 42t46.5 117t-46.5 117.5t-113.5 42.5h-178q-6 0 -11.5 -4.5
t-5.5 -11.5v-287z" />
    <glyph glyph-name="macron" unicode="&#xaf;" horiz-adv-x="823" 
d="M123 1339v41q0 17 12 29t29 12h495q17 0 29 -12t12 -29v-41q0 -17 -12 -29t-29 -12h-495q-17 0 -29 12t-12 29z" />
    <glyph glyph-name="degree" unicode="&#xb0;" horiz-adv-x="757" 
d="M74 1198q0 126 89 214.5t216 88.5q126 0 214.5 -88.5t88.5 -214.5q0 -127 -88.5 -216t-214.5 -89q-127 0 -216 88.5t-89 216.5zM188 1198q0 -75 58 -132.5t133 -57.5t132.5 57.5t57.5 132.5t-57.5 133t-132.5 58t-133 -58t-58 -133z" />
    <glyph glyph-name="plusminus" unicode="&#xb1;" horiz-adv-x="1105" 
d="M102 836v43q0 17 12 29t29 12h326q20 0 20 20v326q0 17 12 29t29 12h45q17 0 29 -12t12 -29v-326q0 -20 21 -20h326q17 0 29 -12t12 -29v-43q0 -17 -12 -29t-29 -12h-326q-9 0 -15 -6t-6 -15v-328q0 -17 -12 -28.5t-29 -11.5h-45q-17 0 -29 11.5t-12 28.5v328
q0 21 -20 21h-326q-17 0 -29 12t-12 29zM109 41v61q0 17 12 29t29 12h806q17 0 29 -12t12 -29v-61q0 -17 -12 -29t-29 -12h-806q-17 0 -29 12t-12 29z" />
    <glyph glyph-name="uni00B2" unicode="&#xb2;" horiz-adv-x="473" 
d="M31 729v94q0 19 8 27l203 235q65 74 65 154q0 34 -20.5 53t-53.5 19q-34 0 -52.5 -19.5t-18.5 -52.5v-16q0 -8 -6 -14.5t-15 -6.5h-82q-20 0 -20 21v16q0 82 56 138.5t138 56.5q87 0 140 -58t53 -137q0 -119 -80 -215l-151 -180q-5 -4 -2 -10.5t10 -6.5h219q20 0 20 -20
v-78q0 -20 -20 -20h-371q-7 0 -13.5 6.5t-6.5 13.5z" />
    <glyph glyph-name="uni00B3" unicode="&#xb3;" horiz-adv-x="497" 
d="M33 911v9q0 8 6.5 14t13.5 6h88q8 0 14.5 -6.5t6.5 -13.5v-9q0 -34 24 -58t64 -24q47 0 69.5 28t22.5 65q0 38 -22 68t-68 30h-16q-21 0 -21 20v84q0 9 6 15t15 6h16q40 0 57 24.5t17 59.5q0 39 -23 58.5t-53 19.5q-28 0 -51 -19.5t-23 -48.5v-16q0 -8 -5.5 -14.5
t-14.5 -6.5h-86q-8 0 -14.5 7t-6.5 14v16q0 82 58 138.5t143 56.5q84 0 144.5 -57t60.5 -138q0 -90 -60 -141q-15 -15 -2 -25q76 -66 76 -162q0 -90 -60 -150.5t-159 -60.5q-91 0 -154 61.5t-63 149.5z" />
    <glyph glyph-name="acute" unicode="&#xb4;" horiz-adv-x="608" 
d="M106 1239l156 223q8 11 12 15.5t15.5 11t25.5 6.5h119q19 0 26 -17t-3 -26l-221 -229q-25 -25 -62 -25h-39q-19 0 -28 15t-1 26z" />
    <glyph glyph-name="uni00B5" unicode="&#xb5;" horiz-adv-x="1705" 
d="M127 -369v1352q0 17 12 29t29 12h39q17 0 29 -12t12 -29v-647q0 -122 70.5 -179t189.5 -57q110 0 185 65.5t75 160.5v657q0 17 12 29t29 12h39q17 0 29 -12t12 -29v-942q0 -17 -12 -29t-29 -12h-33q-15 0 -29 14q-1 2 -5 6.5t-6 6.5t-5.5 6t-6.5 6t-7 4t-9 3t-10 1
q-22 0 -51.5 -16.5t-77.5 -33.5t-114 -17q-54 0 -120.5 25.5t-80.5 25.5q-20 0 -32.5 -14t-12.5 -29v-357q0 -17 -12 -29t-29 -12h-39q-17 0 -29 12t-12 29z" />
    <glyph glyph-name="paragraph" unicode="&#xb6;" horiz-adv-x="1126" 
d="M102 1085q0 145 102 247t247 102h405q17 0 29 -12t12 -29v-1557q0 -17 -12 -29t-29 -12h-29q-17 0 -29 12t-12 29v1477q0 20 -20 20h-184q-21 0 -21 -20v-1477q0 -17 -12 -29t-29 -12h-28q-17 0 -29 12t-12 29v881q0 20 -21 20q-134 0 -231 104t-97 244z" />
    <glyph glyph-name="periodcentered" unicode="&#xb7;" horiz-adv-x="890" 
d="M246 440v205q0 17 12 29t29 12h205q17 0 28.5 -12t11.5 -29v-205q0 -17 -11.5 -29t-28.5 -12h-205q-17 0 -29 12t-12 29z" />
    <glyph glyph-name="cedilla" unicode="&#xb8;" horiz-adv-x="1024" 
d="M381 -373l78 248q9 33 39 33h55q19 0 27.5 -11t5.5 -26l-58 -248q-9 -33 -39 -33h-75q-19 0 -28.5 11.5t-4.5 25.5z" />
    <glyph glyph-name="uni00B9" unicode="&#xb9;" horiz-adv-x="372" 
d="M33 1206v92q0 25 10 33l119 94q14 9 20 9h103q8 0 14 -6t6 -15v-676q0 -7 -6.5 -13.5t-13.5 -6.5h-84q-8 0 -14.5 6.5t-6.5 13.5v537q0 4 -3 6t-5 0l-117 -82q-7 -5 -14.5 -3t-7.5 11z" />
    <glyph glyph-name="ordmasculine" unicode="&#xba;" horiz-adv-x="675" 
d="M106 1106q-16 78 3 164q19 88 83 134t142 46t142 -46t83 -134q18 -84 2 -164q-19 -89 -84 -138.5t-143 -49.5t-143.5 49.5t-84.5 138.5zM207 1106q8 -41 42.5 -67.5t84.5 -26.5t84.5 26.5t42.5 67.5q18 90 -4 164q-24 84 -123 84t-123 -84q-22 -74 -4 -164z" />
    <glyph glyph-name="guillemotright" unicode="&#xbb;" horiz-adv-x="1007" 
d="M148 161q-10 18 8 50l174 297q9 15 9 25.5t-9 23.5l-174 297q-18 32 -8 50t40 18h39q33 0 52 -31l196 -330q11 -17 11 -28.5t-11 -28.5l-196 -330q-19 -31 -52 -31h-39q-30 0 -40 18zM479.5 161q-9.5 18 7.5 50l175 297q9 15 9 25.5t-9 23.5l-175 297q-17 32 -7.5 50
t40.5 18h39q32 0 51 -31l197 -330q11 -17 11 -28.5t-11 -28.5l-197 -330q-19 -31 -51 -31h-39q-31 0 -40.5 18z" />
    <glyph glyph-name="onequarter" unicode="&#xbc;" horiz-adv-x="1308" 
d="M92 1141v78q0 27 21 43l176 161q16 11 20 11h84q7 0 14 -7t7 -14v-676q0 -9 -6.5 -14.5t-14.5 -5.5h-76q-8 0 -14 5.5t-6 14.5v537q0 3 -1.5 4.5t-3.5 1.5t-3 -2l-174 -145q-6 -6 -14.5 -3t-8.5 11zM193 17.5q-11 17.5 0 39.5l792 1346q19 31 45 31h27q21 0 33 -19t0 -39
l-791 -1345q-19 -31 -43 -31h-31q-21 0 -32 17.5zM668 154v65q0 11 16 39l291 444q9 15 22 15h76q7 0 14 -6.5t7 -14.5v-446q0 -10 10 -10h49q8 0 14.5 -6t6.5 -15v-65q0 -9 -6.5 -15t-14.5 -6h-49q-10 0 -10 -10v-103q0 -9 -6.5 -14.5t-14.5 -5.5h-61q-8 0 -14.5 5.5
t-6.5 14.5v103q0 10 -10 10h-293q-20 0 -20 21zM797 242.5q1 -2.5 6 -2.5h178q10 0 10 10v301q0 4 -3.5 4.5t-4.5 -2.5l-184 -305q-3 -3 -2 -5.5z" />
    <glyph glyph-name="onehalf" unicode="&#xbd;" horiz-adv-x="1351" 
d="M92 1141v78q0 27 21 43l176 161q16 11 20 11h84q7 0 14 -7t7 -14v-676q0 -9 -6.5 -14.5t-14.5 -5.5h-76q-8 0 -14 5.5t-6 14.5v537q0 3 -1.5 4.5t-3.5 1.5t-3 -2l-174 -145q-6 -6 -14.5 -3t-8.5 11zM193 17.5q-11 17.5 0 39.5l792 1346q19 31 45 31h27q21 0 33 -19t0 -39
l-791 -1345q-19 -31 -43 -31h-31q-21 0 -32 17.5zM776 20v70q0 17 10 27l263 270q35 37 50 67t15 68q0 45 -26 74t-78 29q-40 0 -70.5 -29t-30.5 -70v-24q0 -21 -20 -21h-74q-8 0 -14 6t-6 15v35q0 81 65.5 138.5t149.5 57.5q85 0 151 -57.5t66 -138.5q0 -66 -23.5 -115.5
t-75.5 -106.5l-178 -188q-5 -5 -2 -10.5t10 -5.5h261q20 0 20 -21v-70q0 -20 -20 -20h-422q-8 0 -14.5 5.5t-6.5 14.5z" />
    <glyph glyph-name="threequarters" unicode="&#xbe;" horiz-adv-x="1329" 
d="M41 918v6q0 9 6 14.5t14 5.5h78q8 0 14.5 -5.5t6.5 -14.5v-6q0 -43 34.5 -72t84.5 -29q49 0 84.5 29.5t35.5 83.5q0 45 -34 77.5t-84 32.5h-13q-9 0 -14.5 6.5t-5.5 14.5v65q0 8 5.5 14.5t14.5 6.5h13q44 0 74 29t30 77q0 37 -28.5 67t-77.5 30q-43 0 -74 -31t-31 -66
v-14q0 -20 -20 -20h-76q-8 0 -14.5 5.5t-6.5 14.5v14q0 81 67.5 139t154.5 58q91 0 155 -57t64 -140q0 -99 -66 -147q-13 -10 0 -19q36 -25 59 -68t23 -89q0 -92 -65.5 -157.5t-169.5 -65.5q-93 0 -165.5 62t-72.5 149zM193 17.5q-11 17.5 0 39.5l792 1346q19 31 45 31h27
q21 0 33 -19t0 -39l-791 -1345q-19 -31 -43 -31h-31q-21 0 -32 17.5zM668 154v65q0 11 16 39l291 444q9 15 22 15h76q7 0 14 -6.5t7 -14.5v-446q0 -10 10 -10h49q8 0 14.5 -6t6.5 -15v-65q0 -9 -6.5 -15t-14.5 -6h-49q-10 0 -10 -10v-103q0 -9 -6.5 -14.5t-14.5 -5.5h-61
q-8 0 -14.5 5.5t-6.5 14.5v103q0 10 -10 10h-293q-20 0 -20 21zM797 242.5q1 -2.5 6 -2.5h178q10 0 10 10v301q0 4 -3.5 4.5t-4.5 -2.5l-184 -305q-3 -3 -2 -5.5z" />
    <glyph glyph-name="questiondown" unicode="&#xbf;" horiz-adv-x="925" 
d="M92 -55q0 27 4.5 53.5t10 46t18.5 43t20.5 36.5t26 35t26 30t29.5 31t27 28q7 7 41.5 39t59.5 57t48 61t23 64v145q0 17 12 29t29 12h41q17 0 29 -12t12 -29v-145q0 -82 -37 -125q-42 -49 -102.5 -104t-61.5 -56t-23 -22t-30 -30t-27 -33.5t-27 -44t-16 -49t-8 -60.5
q0 -104 68 -168t182 -64q103 0 173.5 79.5t70.5 193.5v14q0 17 12 29t29 12h41q17 0 29 -12t12 -29v-14q0 -165 -105.5 -280.5t-261.5 -115.5q-165 0 -270 98t-105 257zM387 883v129q0 13 9.5 22.5t23.5 9.5h127q14 0 23.5 -9.5t9.5 -22.5v-129q0 -12 -10 -22.5t-23 -10.5
h-127q-13 0 -23 10.5t-10 22.5z" />
    <glyph glyph-name="Agrave" unicode="&#xc0;" 
d="M8 41l391 1362q3 13 14 22t25 9h103q14 0 25 -9t14 -22l391 -1362q3 -15 -7.5 -28t-33.5 -13h-51q-14 0 -25 9t-14 22l-101 346q-10 29 -39 29h-421q-29 0 -39 -29l-101 -346q-3 -13 -14 -22t-25 -9h-51q-23 0 -33.5 13t-7.5 28zM207.5 1816q6.5 17 25.5 17h119
q30 0 54 -33l155 -223q8 -11 -1 -26t-28 -15h-38q-37 0 -62 25l-221 229q-10 9 -3.5 26zM293 555q-6 -23 16 -23h361q22 0 16 23l-186 696q-3 13 -8 13h-5q-5 0 -8 -13z" />
    <glyph glyph-name="Aacute" unicode="&#xc1;" 
d="M8 41l391 1362q3 13 14 22t25 9h103q14 0 25 -9t14 -22l391 -1362q3 -15 -7.5 -28t-33.5 -13h-51q-14 0 -25 9t-14 22l-101 346q-10 29 -39 29h-421q-29 0 -39 -29l-101 -346q-3 -13 -14 -22t-25 -9h-51q-23 0 -33.5 13t-7.5 28zM293 555q-6 -23 16 -23h361q22 0 16 23
l-186 696q-3 13 -8 13h-5q-5 0 -8 -13zM408 1577l155 223q8 11 12 15.5t15.5 11t25.5 6.5h119q19 0 26 -17t-3 -26l-221 -229q-25 -25 -62 -25h-39q-19 0 -27.5 15t-0.5 26z" />
    <glyph glyph-name="Acircumflex" unicode="&#xc2;" 
d="M8 41l391 1362q3 13 14 22t25 9h103q14 0 25 -9t14 -22l391 -1362q3 -15 -7.5 -28t-33.5 -13h-51q-14 0 -25 9t-14 22l-101 346q-10 29 -39 29h-421q-29 0 -39 -29l-101 -346q-3 -13 -14 -22t-25 -9h-51q-23 0 -33.5 13t-7.5 28zM164.5 1555q-6.5 17 3.5 26l242 229
q25 25 61 25h45q34 0 59 -25l242 -229q10 -9 3.5 -26t-25.5 -17h-88q-31 0 -64 33l-137 133q-14 14 -29 0l-135 -133q-33 -33 -63 -33h-89q-19 0 -25.5 17zM293 555q-6 -23 16 -23h361q22 0 16 23l-186 696q-3 13 -8 13h-5q-5 0 -8 -13z" />
    <glyph glyph-name="Atilde" unicode="&#xc3;" 
d="M8 41l391 1362q3 13 14 22t25 9h103q14 0 25 -9t14 -22l391 -1362q3 -15 -7.5 -28t-33.5 -13h-51q-14 0 -25 9t-14 22l-101 346q-10 29 -39 29h-421q-29 0 -39 -29l-101 -346q-3 -13 -14 -22t-25 -9h-51q-23 0 -33.5 13t-7.5 28zM211 1602v49q0 41 42.5 72.5t102.5 31.5
q64 0 140 -25.5t147 -25.5q60 0 94 43q12 16 31.5 7.5t19.5 -36.5v-49q0 -41 -42.5 -72.5t-102.5 -31.5q-65 0 -141 25.5t-146 25.5q-57 0 -94 -43q-12 -15 -31.5 -6.5t-19.5 35.5zM293 555q-6 -23 16 -23h361q22 0 16 23l-186 696q-3 13 -8 13h-5q-5 0 -8 -13z" />
    <glyph glyph-name="Adieresis" unicode="&#xc4;" 
d="M8 41l391 1362q3 13 14 22t25 9h103q14 0 25 -9t14 -22l391 -1362q3 -15 -7.5 -28t-33.5 -13h-51q-14 0 -25 9t-14 22l-101 346q-10 29 -39 29h-421q-29 0 -39 -29l-101 -346q-3 -13 -14 -22t-25 -9h-51q-23 0 -33.5 13t-7.5 28zM221 1593v109q0 12 10 22.5t23 10.5h106
q13 0 23 -10.5t10 -22.5v-109q0 -13 -9.5 -22.5t-23.5 -9.5h-106q-14 0 -23.5 9.5t-9.5 22.5zM293 555q-6 -23 16 -23h361q22 0 16 23l-186 696q-3 13 -8 13h-5q-5 0 -8 -13zM571 1593v109q0 12 10 22.5t23 10.5h107q13 0 22.5 -10.5t9.5 -22.5v-109q0 -13 -9.5 -22.5
t-22.5 -9.5h-107q-14 0 -23.5 9.5t-9.5 22.5z" />
    <glyph glyph-name="Aring" unicode="&#xc5;" 
d="M8 41l391 1362q3 13 14 22t25 9h103q14 0 25 -9t14 -22l391 -1362q3 -15 -7.5 -28t-33.5 -13h-51q-14 0 -25 9t-14 22l-101 346q-10 29 -39 29h-421q-29 0 -39 -29l-101 -346q-3 -13 -14 -22t-25 -9h-51q-23 0 -33.5 13t-7.5 28zM274 1720q0 94 66 160t160 66t159.5 -66
t65.5 -160t-65.5 -159.5t-159.5 -65.5t-160 65.5t-66 159.5zM293 555q-6 -23 16 -23h361q22 0 16 23l-186 696q-3 13 -8 13h-5q-5 0 -8 -13zM385 1720q0 -47 34 -80.5t81 -33.5q49 0 80.5 33t31.5 81q0 50 -31.5 81.5t-80.5 31.5q-48 0 -81.5 -32t-33.5 -81z" />
    <glyph glyph-name="AE" unicode="&#xc6;" horiz-adv-x="1480" 
d="M8 41l391 1362q3 13 14 22t25 9h899q17 0 29 -12t12 -29v-50q0 -17 -12 -28.5t-29 -11.5h-530q-9 0 -15 -6t-6 -15v-465q0 -20 21 -20h508q17 0 29 -12t12 -29v-47q0 -17 -12 -29t-29 -12h-508q-9 0 -15 -6t-6 -15v-495q0 -9 6 -15t15 -6h534q17 0 29 -12t12 -29v-49
q0 -17 -12 -29t-29 -12h-645q-17 0 -29 12t-12 29v344q0 21 -20 21h-356q-29 0 -39 -29l-101 -346q-3 -13 -14 -22t-25 -9h-51q-23 0 -33.5 13t-7.5 28zM293 555q-6 -23 16 -23h326q20 0 20 21v729q0 21 -20 21h-133q-10 0 -13 -13z" />
    <glyph glyph-name="Ccedilla" unicode="&#xc7;" horiz-adv-x="1112" 
d="M94 717.5q0 183.5 17 306.5q12 85 47 160.5t91 135.5t138 95t180 35q99 0 185 -35t145 -93.5t93 -136t34 -161.5v-8q0 -17 -12 -29t-29 -12h-55q-17 0 -29 12t-12 29v8q0 119 -89.5 207t-230.5 88q-137 0 -218.5 -85.5t-100.5 -209.5q-19 -126 -19 -307t19 -307
q5 -39 17.5 -77t38 -78t60 -70.5t87.5 -50t116 -19.5q79 0 142.5 28.5t101 74t57 95t19.5 97.5v8q0 17 12 29t29 12h55q17 0 29 -12t12 -29v-8q0 -129 -63.5 -227.5t-166.5 -148.5t-227 -50q-185 0 -307.5 114t-148.5 312q-17 124 -17 307.5zM442 -373l78 248q9 33 39 33h55
q19 0 27.5 -11t5.5 -26l-57 -248q-9 -33 -39 -33h-76q-19 0 -28.5 11.5t-4.5 25.5z" />
    <glyph glyph-name="Egrave" unicode="&#xc8;" horiz-adv-x="962" 
d="M133 41v1352q0 17 12 29t29 12h641q17 0 29 -12t12 -29v-50q0 -17 -12 -28.5t-29 -11.5h-530q-9 0 -15 -6t-6 -15v-465q0 -20 21 -20h508q17 0 29 -12t12 -29v-47q0 -17 -12 -29t-29 -12h-508q-9 0 -15 -6t-6 -15v-495q0 -9 6 -15t15 -6h534q17 0 29 -12t12 -29v-49
q0 -17 -12 -29t-29 -12h-645q-17 0 -29 12t-12 29zM228 1816q7 17 26 17h119q14 0 25.5 -6.5t15.5 -11t12 -15.5l156 -223q8 -11 -1 -26t-28 -15h-39q-36 0 -61 25l-222 229q-10 9 -3 26z" />
    <glyph glyph-name="Eacute" unicode="&#xc9;" horiz-adv-x="962" 
d="M133 41v1352q0 17 12 29t29 12h641q17 0 29 -12t12 -29v-50q0 -17 -12 -28.5t-29 -11.5h-530q-9 0 -15 -6t-6 -15v-465q0 -20 21 -20h508q17 0 29 -12t12 -29v-47q0 -17 -12 -29t-29 -12h-508q-9 0 -15 -6t-6 -15v-495q0 -9 6 -15t15 -6h534q17 0 29 -12t12 -29v-49
q0 -17 -12 -29t-29 -12h-645q-17 0 -29 12t-12 29zM387 1577l156 223q8 11 12 15.5t15.5 11t25.5 6.5h119q19 0 25.5 -17t-3.5 -26l-221 -229q-25 -25 -61 -25h-39q-19 0 -28 15t-1 26z" />
    <glyph glyph-name="Ecircumflex" unicode="&#xca;" horiz-adv-x="962" 
d="M133 41v1352q0 17 12 29t29 12h641q17 0 29 -12t12 -29v-50q0 -17 -12 -28.5t-29 -11.5h-530q-9 0 -15 -6t-6 -15v-465q0 -20 21 -20h508q17 0 29 -12t12 -29v-47q0 -17 -12 -29t-29 -12h-508q-9 0 -15 -6t-6 -15v-495q0 -9 6 -15t15 -6h534q17 0 29 -12t12 -29v-49
q0 -17 -12 -29t-29 -12h-645q-17 0 -29 12t-12 29zM183 1555q-7 17 3 26l242 229q25 25 61 25h46q34 0 59 -25l242 -229q10 -9 3 -26t-26 -17h-88q-30 0 -63 33l-138 133q-14 14 -28 0l-136 -133q-33 -33 -63 -33h-88q-19 0 -26 17z" />
    <glyph glyph-name="Edieresis" unicode="&#xcb;" horiz-adv-x="962" 
d="M133 41v1352q0 17 12 29t29 12h641q17 0 29 -12t12 -29v-50q0 -17 -12 -28.5t-29 -11.5h-530q-9 0 -15 -6t-6 -15v-465q0 -20 21 -20h508q17 0 29 -12t12 -29v-47q0 -17 -12 -29t-29 -12h-508q-9 0 -15 -6t-6 -15v-495q0 -9 6 -15t15 -6h534q17 0 29 -12t12 -29v-49
q0 -17 -12 -29t-29 -12h-645q-17 0 -29 12t-12 29zM244 1593v109q0 12 9.5 22.5t22.5 10.5h107q13 0 23 -10.5t10 -22.5v-109q0 -13 -9.5 -22.5t-23.5 -9.5h-107q-14 0 -23 9.5t-9 22.5zM594 1593v109q0 12 10 22.5t23 10.5h106q13 0 23 -10.5t10 -22.5v-109
q0 -13 -9.5 -22.5t-23.5 -9.5h-106q-14 0 -23.5 9.5t-9.5 22.5z" />
    <glyph glyph-name="Igrave" unicode="&#xcc;" horiz-adv-x="397" 
d="M-38 1816q7 17 26 17h118q30 0 54 -33l155 -223q8 -11 -0.5 -26t-27.5 -15h-39q-37 0 -62 25l-221 229q-10 9 -3 26zM133 41v1352q0 17 12 29t29 12h49q17 0 29 -12t12 -29v-1352q0 -17 -12 -29t-29 -12h-49q-17 0 -29 12t-12 29z" />
    <glyph glyph-name="Iacute" unicode="&#xcd;" horiz-adv-x="397" 
d="M133 41v1352q0 17 12 29t29 12h49q17 0 29 -12t12 -29v-1352q0 -17 -12 -29t-29 -12h-49q-17 0 -29 12t-12 29zM141 1577l156 223q8 11 12 15.5t15.5 11t25.5 6.5h119q19 0 26 -17t-3 -26l-222 -229q-25 -25 -61 -25h-39q-19 0 -28 15t-1 26z" />
    <glyph glyph-name="Icircumflex" unicode="&#xce;" horiz-adv-x="397" 
d="M-130 1555q-7 17 3 26l242 229q25 25 61 25h45q35 0 60 -25l241 -229q10 -9 3.5 -26t-25.5 -17h-88q-31 0 -64 33l-137 133q-15 14 -29 0l-135 -133q-33 -33 -63 -33h-88q-19 0 -26 17zM133 41v1352q0 17 12 29t29 12h49q17 0 29 -12t12 -29v-1352q0 -17 -12 -29t-29 -12
h-49q-17 0 -29 12t-12 29z" />
    <glyph glyph-name="Idieresis" unicode="&#xcf;" horiz-adv-x="397" 
d="M-57 1593v109q0 12 9.5 22.5t22.5 10.5h107q13 0 23 -10.5t10 -22.5v-109q0 -13 -9.5 -22.5t-23.5 -9.5h-107q-13 0 -22.5 9.5t-9.5 22.5zM133 41v1352q0 17 12 29t29 12h49q17 0 29 -12t12 -29v-1352q0 -17 -12 -29t-29 -12h-49q-17 0 -29 12t-12 29zM293 1593v109
q0 12 10 22.5t23 10.5h106q13 0 23 -10.5t10 -22.5v-109q0 -13 -9.5 -22.5t-23.5 -9.5h-106q-14 0 -23.5 9.5t-9.5 22.5z" />
    <glyph glyph-name="Eth" unicode="&#xd0;" horiz-adv-x="1101" 
d="M6 709v47q0 17 12 29t29 12h66q20 0 20 20v576q0 17 12 29t29 12h369q193 0 312 -116t144 -294q17 -123 17 -306t-17 -308q-26 -196 -147.5 -303t-308.5 -107h-369q-17 0 -29 12t-12 29v606q0 21 -20 21h-66q-17 0 -29 12t-12 29zM264 152q0 -9 6 -15t15 -6h258
q79 0 140 26t97 69.5t55.5 89t26.5 94.5q19 126 19 307t-19 307q-19 122 -100 200.5t-219 78.5h-258q-9 0 -15 -6t-6 -15v-465q0 -20 21 -20h204q17 0 29 -12t12 -29v-47q0 -17 -12 -29t-29 -12h-204q-9 0 -15 -6t-6 -15v-495z" />
    <glyph glyph-name="Ntilde" unicode="&#xd1;" horiz-adv-x="1085" 
d="M133 41v1352q0 17 12 29t29 12h107q17 0 25.5 -6.5t17.5 -28.5l489 -1166q3 -6 9.5 -4t6.5 9v1155q0 17 12 29t29 12h41q17 0 29 -12t12 -29v-1352q0 -17 -12 -29t-29 -12h-106q-17 0 -25.5 6.5t-17.5 28.5l-490 1175q-2 4 -6 5t-7 -1.5t-3 -7.5v-1165q0 -17 -12 -29
t-29 -12h-41q-17 0 -29 12t-12 29zM274 1602v49q0 41 43 72.5t103 31.5q64 0 140 -25.5t147 -25.5q60 0 94 43q12 16 31.5 7.5t19.5 -36.5v-49q0 -41 -42.5 -72.5t-102.5 -31.5q-65 0 -141 25.5t-146 25.5q-57 0 -94 -43q-12 -15 -32 -6.5t-20 35.5z" />
    <glyph glyph-name="Ograve" unicode="&#xd2;" horiz-adv-x="1138" 
d="M94 717.5q0 183.5 17 306.5q12 85 47 160.5t91 135.5t138 95t180 35q130 0 230.5 -61t155.5 -155.5t71 -209.5q17 -123 17 -306t-17 -308q-26 -198 -149 -312t-308 -114t-307.5 114t-148.5 312q-17 124 -17 307.5zM229 717q0 -181 19 -307q5 -39 17.5 -77t38 -78
t60 -70.5t87.5 -50t116 -19.5t116 19.5t87.5 50t60 70.5t38.5 78t18 77q19 126 19 307t-19 307q-19 124 -101 209.5t-219 85.5t-218.5 -85.5t-100.5 -209.5q-19 -126 -19 -307zM269 1816q7 17 26 17h119q14 0 25.5 -6.5t15.5 -11t12 -15.5l156 -223q8 -11 -1 -26t-28 -15
h-39q-36 0 -61 25l-222 229q-10 9 -3 26z" />
    <glyph glyph-name="Oacute" unicode="&#xd3;" horiz-adv-x="1138" 
d="M94 717.5q0 183.5 17 306.5q12 85 47 160.5t91 135.5t138 95t180 35q130 0 230.5 -61t155.5 -155.5t71 -209.5q17 -123 17 -306t-17 -308q-26 -198 -149 -312t-308 -114t-307.5 114t-148.5 312q-17 124 -17 307.5zM229 717q0 -181 19 -307q5 -39 17.5 -77t38 -78
t60 -70.5t87.5 -50t116 -19.5t116 19.5t87.5 50t60 70.5t38.5 78t18 77q19 126 19 307t-19 307q-19 124 -101 209.5t-219 85.5t-218.5 -85.5t-100.5 -209.5q-19 -126 -19 -307zM469 1577l156 223q8 11 12 15.5t15.5 11t25.5 6.5h119q19 0 25.5 -17t-3.5 -26l-221 -229
q-25 -25 -61 -25h-39q-19 0 -28 15t-1 26z" />
    <glyph glyph-name="Ocircumflex" unicode="&#xd4;" horiz-adv-x="1138" 
d="M94 717.5q0 183.5 17 306.5q12 85 47 160.5t91 135.5t138 95t180 35q130 0 230.5 -61t155.5 -155.5t71 -209.5q17 -123 17 -306t-17 -308q-26 -198 -149 -312t-308 -114t-307.5 114t-148.5 312q-17 124 -17 307.5zM229 717q0 -181 19 -307q5 -39 17.5 -77t38 -78
t60 -70.5t87.5 -50t116 -19.5t116 19.5t87.5 50t60 70.5t38.5 78t18 77q19 126 19 307t-19 307q-19 124 -101 209.5t-219 85.5t-218.5 -85.5t-100.5 -209.5q-19 -126 -19 -307zM244.5 1555q-6.5 17 3.5 26l241 229q25 25 62 25h45q34 0 59 -25l242 -229q10 -9 3 -26t-26 -17
h-88q-30 0 -63 33l-137 133q-14 14 -29 0l-135 -133q-33 -33 -64 -33h-88q-19 0 -25.5 17z" />
    <glyph glyph-name="Otilde" unicode="&#xd5;" horiz-adv-x="1138" 
d="M94 717.5q0 183.5 17 306.5q12 85 47 160.5t91 135.5t138 95t180 35q130 0 230.5 -61t155.5 -155.5t71 -209.5q17 -123 17 -306t-17 -308q-26 -198 -149 -312t-308 -114t-307.5 114t-148.5 312q-17 124 -17 307.5zM229 717q0 -181 19 -307q5 -39 17.5 -77t38 -78
t60 -70.5t87.5 -50t116 -19.5t116 19.5t87.5 50t60 70.5t38.5 78t18 77q19 126 19 307t-19 307q-19 124 -101 209.5t-219 85.5t-218.5 -85.5t-100.5 -209.5q-19 -126 -19 -307zM285 1602v49q0 41 42.5 72.5t102.5 31.5q65 0 140.5 -25.5t146.5 -25.5q60 0 94 43
q12 16 31.5 7.5t19.5 -36.5v-49q0 -41 -42.5 -72.5t-102.5 -31.5q-65 0 -141 25.5t-146 25.5q-57 0 -94 -43q-12 -15 -31.5 -6.5t-19.5 35.5z" />
    <glyph glyph-name="Odieresis" unicode="&#xd6;" horiz-adv-x="1138" 
d="M94 717.5q0 183.5 17 306.5q12 85 47 160.5t91 135.5t138 95t180 35q130 0 230.5 -61t155.5 -155.5t71 -209.5q17 -123 17 -306t-17 -308q-26 -198 -149 -312t-308 -114t-307.5 114t-148.5 312q-17 124 -17 307.5zM229 717q0 -181 19 -307q5 -39 17.5 -77t38 -78
t60 -70.5t87.5 -50t116 -19.5t116 19.5t87.5 50t60 70.5t38.5 78t18 77q19 126 19 307t-19 307q-19 124 -101 209.5t-219 85.5t-218.5 -85.5t-100.5 -209.5q-19 -126 -19 -307zM299 1593v109q0 12 10 22.5t23 10.5h106q13 0 23 -10.5t10 -22.5v-109q0 -13 -9.5 -22.5
t-23.5 -9.5h-106q-14 0 -23.5 9.5t-9.5 22.5zM649 1593v109q0 12 10 22.5t23 10.5h106q13 0 23 -10.5t10 -22.5v-109q0 -13 -9.5 -22.5t-23.5 -9.5h-106q-14 0 -23.5 9.5t-9.5 22.5z" />
    <glyph glyph-name="multiply" unicode="&#xd7;" horiz-adv-x="937" 
d="M103 806q0 18 12 30l30 30q12 12 29.5 12t28.5 -12l252 -250q14 -14 28 0l252 250q11 12 28.5 12t29.5 -12l30 -30q11 -10 11 -28t-11 -30l-252 -250q-14 -14 0 -28l252 -254q12 -11 12 -28.5t-12 -29.5l-30 -30q-12 -12 -29.5 -12t-28.5 12l-254 252q-14 14 -28 0
l-250 -252q-12 -10 -29.5 -10t-28.5 10l-30 30q-12 12 -11.5 29t11.5 29l250 252q14 14 0 28l-250 252q-12 10 -12 28z" />
    <glyph glyph-name="Oslash" unicode="&#xd8;" horiz-adv-x="1073" 
d="M63 717.5q0 183.5 17 306.5q16 115 71 209.5t155.5 155.5t230.5 61q151 0 268 -86q14 -7 20 4l19 35q16 31 39 31h61q20 0 29 -13t0 -32l-64 -117q-6 -11 0 -23q66 -104 84 -225q17 -123 17 -306t-17 -308q-26 -198 -148.5 -312t-307.5 -114q-158 0 -269 82q-7 7 -14 -7
l-16 -28q-19 -31 -43 -31h-60q-21 0 -30 13.5t1 35.5l58 107q4 9 -2 22q-63 93 -82 232q-17 124 -17 307.5zM198 717q0 -181 19 -307q7 -44 21 -86q2 -6 6.5 -7.5t11.5 7.5l489 899q6 10 -6 22q-84 74 -202 74q-137 0 -219 -85.5t-101 -209.5q-19 -126 -19 -307zM330 201
q-8 -13 4 -19q80 -67 203 -67q63 0 116 19.5t87.5 50t60 70.5t38 78t17.5 77q19 126 19 307t-19 307q-5 35 -22 84q-6 13 -15 -2z" />
    <glyph glyph-name="Ugrave" unicode="&#xd9;" horiz-adv-x="1101" 
d="M111 424v969q0 17 12 29t29 12h49q17 0 29 -12t12 -29v-969q0 -125 90 -217t219 -92t219 92t90 217v969q0 17 12 29t29 12h49q17 0 29 -12t12 -29v-969q0 -183 -128.5 -311.5t-311.5 -128.5t-311.5 128.5t-128.5 311.5zM269 1816q7 17 26 17h119q14 0 25.5 -6.5t15.5 -11
t12 -15.5l156 -223q8 -11 -1 -26t-28 -15h-39q-36 0 -61 25l-222 229q-10 9 -3 26z" />
    <glyph glyph-name="Uacute" unicode="&#xda;" horiz-adv-x="1101" 
d="M111 424v969q0 17 12 29t29 12h49q17 0 29 -12t12 -29v-969q0 -125 90 -217t219 -92t219 92t90 217v969q0 17 12 29t29 12h49q17 0 29 -12t12 -29v-969q0 -183 -128.5 -311.5t-311.5 -128.5t-311.5 128.5t-128.5 311.5zM469 1577l156 223q8 11 12 15.5t15.5 11t25.5 6.5
h119q19 0 25.5 -17t-3.5 -26l-221 -229q-25 -25 -61 -25h-39q-19 0 -28 15t-1 26z" />
    <glyph glyph-name="Ucircumflex" unicode="&#xdb;" horiz-adv-x="1101" 
d="M111 424v969q0 17 12 29t29 12h49q17 0 29 -12t12 -29v-969q0 -125 90 -217t219 -92t219 92t90 217v969q0 17 12 29t29 12h49q17 0 29 -12t12 -29v-969q0 -183 -128.5 -311.5t-311.5 -128.5t-311.5 128.5t-128.5 311.5zM224 1555q-7 17 3 26l242 229q25 25 61 25h45
q35 0 60 -25l242 -229q10 -9 3 -26t-26 -17h-88q-31 0 -64 33l-137 133q-14 14 -28 0l-136 -133q-33 -33 -63 -33h-88q-19 0 -26 17z" />
    <glyph glyph-name="Udieresis" unicode="&#xdc;" horiz-adv-x="1101" 
d="M111 424v969q0 17 12 29t29 12h49q17 0 29 -12t12 -29v-969q0 -125 90 -217t219 -92t219 92t90 217v969q0 17 12 29t29 12h49q17 0 29 -12t12 -29v-969q0 -183 -128.5 -311.5t-311.5 -128.5t-311.5 128.5t-128.5 311.5zM293 1593v109q0 12 10 22.5t23 10.5h106
q13 0 23 -10.5t10 -22.5v-109q0 -13 -9.5 -22.5t-23.5 -9.5h-106q-14 0 -23.5 9.5t-9.5 22.5zM643 1593v109q0 12 10 22.5t23 10.5h106q13 0 23 -10.5t10 -22.5v-109q0 -13 -9.5 -22.5t-23.5 -9.5h-106q-14 0 -23.5 9.5t-9.5 22.5z" />
    <glyph glyph-name="Yacute" unicode="&#xdd;" horiz-adv-x="905" 
d="M25 1376q-9 23 1 40.5t31 17.5h66q28 0 39 -31l284 -731q3 -8 8.5 -8t8.5 8l280 731q11 31 39 31h66q21 0 31.5 -17.5t1.5 -40.5l-359 -882v-453q0 -17 -12 -29t-29 -12h-53q-17 0 -29 12t-12 29v451zM367 1577l155 223q8 11 12 15.5t15.5 11t25.5 6.5h119q19 0 26 -17
t-3 -26l-221 -229q-25 -25 -62 -25h-39q-19 0 -27.5 15t-0.5 26z" />
    <glyph glyph-name="Thorn" unicode="&#xde;" horiz-adv-x="1044" 
d="M133 41v1352q0 17 12 29t29 12h49q17 0 29 -12t12 -29v-164q0 -9 6 -15t15 -6h237q178 0 304 -126t126 -304v-102q0 -178 -126 -304t-304 -126h-237q-9 0 -15 -6t-6 -15v-184q0 -17 -12 -29t-29 -12h-49q-17 0 -29 12t-12 29zM264 397q0 -20 21 -20h237q123 0 211 88
t88 211v102q0 123 -88 211t-211 88h-237q-21 0 -21 -20v-660z" />
    <glyph glyph-name="germandbls" unicode="&#xdf;" horiz-adv-x="1021" 
d="M133 41v1018q0 174 104.5 284.5t272.5 110.5q165 0 272 -114t107 -281q0 -162 -119 -281q-27 -27 -2 -49q152 -132 152 -323q0 -177 -115.5 -291.5t-294.5 -114.5h-41q-17 0 -29 12t-12 29v39q0 17 12 29t29 12h41q120 0 204.5 84t84.5 201q0 116 -77.5 199t-207.5 83
h-14q-17 0 -29 12t-12 29v41q0 17 12 29t29 12h14q107 0 180.5 70.5t73.5 177.5q0 126 -71.5 200t-186.5 74q-113 0 -182.5 -79t-69.5 -195v-1018q0 -17 -12 -29t-29 -12h-43q-17 0 -29 12t-12 29z" />
    <glyph glyph-name="agrave" unicode="&#xe0;" horiz-adv-x="997" 
d="M88 307q0 131 90.5 215t247.5 84h293q20 0 20 21v80q0 99 -69.5 162t-177.5 63q-96 0 -168 -50.5t-72 -129.5q0 -16 -9 -24.5t-17 -9.5t-21 -1h-29q-41 0 -41 41q0 91 54 157.5t133.5 97.5t169.5 31q104 0 185 -35t132 -113.5t51 -190.5v-664q0 -17 -12 -29t-29 -12h-18
q-21 0 -29 14l-6.5 13t-7.5 14.5t-10.5 10.5t-16.5 5q-11 0 -37 -12t-54.5 -26.5t-77.5 -26.5t-101 -12q-180 0 -276.5 94t-96.5 233zM201.5 1478q6.5 17 25.5 17h119q14 0 25.5 -6.5t15.5 -11t12 -15.5l156 -223q8 -11 -1 -26t-28 -15h-39q-36 0 -61 25l-221 229
q-10 9 -3.5 26zM209 309q0 -104 69.5 -159.5t172.5 -55.5q141 0 217.5 66t76.5 190v123q0 21 -20 21h-299q-91 0 -154 -49t-63 -136z" />
    <glyph glyph-name="aacute" unicode="&#xe1;" horiz-adv-x="997" 
d="M88 307q0 131 90.5 215t247.5 84h293q20 0 20 21v80q0 99 -69.5 162t-177.5 63q-96 0 -168 -50.5t-72 -129.5q0 -16 -9 -24.5t-17 -9.5t-21 -1h-29q-41 0 -41 41q0 91 54 157.5t133.5 97.5t169.5 31q104 0 185 -35t132 -113.5t51 -190.5v-664q0 -17 -12 -29t-29 -12h-18
q-21 0 -29 14l-6.5 13t-7.5 14.5t-10.5 10.5t-16.5 5q-11 0 -37 -12t-54.5 -26.5t-77.5 -26.5t-101 -12q-180 0 -276.5 94t-96.5 233zM209 309q0 -104 69.5 -159.5t172.5 -55.5q141 0 217.5 66t76.5 190v123q0 21 -20 21h-299q-91 0 -154 -49t-63 -136zM408 1239l155 223
q8 11 12 15.5t15.5 11t25.5 6.5h119q19 0 26 -17t-3 -26l-221 -229q-25 -25 -62 -25h-39q-19 0 -27.5 15t-0.5 26z" />
    <glyph glyph-name="acircumflex" unicode="&#xe2;" horiz-adv-x="997" 
d="M88 307q0 131 90.5 215t247.5 84h293q20 0 20 21v80q0 99 -69.5 162t-177.5 63q-96 0 -168 -50.5t-72 -129.5q0 -16 -9 -24.5t-17 -9.5t-21 -1h-29q-41 0 -41 41q0 91 54 157.5t133.5 97.5t169.5 31q104 0 185 -35t132 -113.5t51 -190.5v-664q0 -17 -12 -29t-29 -12h-18
q-21 0 -29 14l-6.5 13t-7.5 14.5t-10.5 10.5t-16.5 5q-11 0 -37 -12t-54.5 -26.5t-77.5 -26.5t-101 -12q-180 0 -276.5 94t-96.5 233zM171 1215q-7 17 3 26l242 229q25 25 61 25h45q35 0 60 -25l241 -229q10 -9 3.5 -26t-25.5 -17h-88q-31 0 -64 33l-137 133q-14 14 -29 0
l-135 -133q-33 -33 -63 -33h-88q-19 0 -26 17zM209 309q0 -104 69.5 -159.5t172.5 -55.5q141 0 217.5 66t76.5 190v123q0 21 -20 21h-299q-91 0 -154 -49t-63 -136z" />
    <glyph glyph-name="atilde" unicode="&#xe3;" horiz-adv-x="997" 
d="M88 307q0 131 90.5 215t247.5 84h293q20 0 20 21v80q0 99 -69.5 162t-177.5 63q-96 0 -168 -50.5t-72 -129.5q0 -16 -9 -24.5t-17 -9.5t-21 -1h-29q-41 0 -41 41q0 91 54 157.5t133.5 97.5t169.5 31q104 0 185 -35t132 -113.5t51 -190.5v-664q0 -17 -12 -29t-29 -12h-18
q-21 0 -29 14l-6.5 13t-7.5 14.5t-10.5 10.5t-16.5 5q-11 0 -37 -12t-54.5 -26.5t-77.5 -26.5t-101 -12q-180 0 -276.5 94t-96.5 233zM209 309q0 -104 69.5 -159.5t172.5 -55.5q141 0 217.5 66t76.5 190v123q0 21 -20 21h-299q-91 0 -154 -49t-63 -136zM211 1282v49
q0 41 42.5 73t102.5 32q64 0 140 -26t147 -26q60 0 94 43q12 17 31.5 8.5t19.5 -36.5v-49q0 -41 -42.5 -73t-102.5 -32q-65 0 -141 25.5t-146 25.5q-57 0 -94 -43q-12 -15 -31.5 -6.5t-19.5 35.5z" />
    <glyph glyph-name="adieresis" unicode="&#xe4;" horiz-adv-x="997" 
d="M88 307q0 131 90.5 215t247.5 84h293q20 0 20 21v80q0 99 -69.5 162t-177.5 63q-96 0 -168 -50.5t-72 -129.5q0 -16 -9 -24.5t-17 -9.5t-21 -1h-29q-41 0 -41 41q0 91 54 157.5t133.5 97.5t169.5 31q104 0 185 -35t132 -113.5t51 -190.5v-664q0 -17 -12 -29t-29 -12h-18
q-21 0 -29 14l-6.5 13t-7.5 14.5t-10.5 10.5t-16.5 5q-11 0 -37 -12t-54.5 -26.5t-77.5 -26.5t-101 -12q-180 0 -276.5 94t-96.5 233zM209 309q0 -104 69.5 -159.5t172.5 -55.5q141 0 217.5 66t76.5 190v123q0 21 -20 21h-299q-91 0 -154 -49t-63 -136zM221 1307v108
q0 12 10 22.5t23 10.5h106q13 0 23 -10.5t10 -22.5v-108q0 -13 -9.5 -23t-23.5 -10h-106q-14 0 -23.5 10t-9.5 23zM571 1307v108q0 12 10 22.5t23 10.5h107q13 0 22.5 -10.5t9.5 -22.5v-108q0 -14 -9.5 -23.5t-22.5 -9.5h-107q-14 0 -23.5 10t-9.5 23z" />
    <glyph glyph-name="aring" unicode="&#xe5;" horiz-adv-x="997" 
d="M88 307q0 131 90.5 215t247.5 84h293q20 0 20 21v80q0 99 -69.5 162t-177.5 63q-96 0 -168 -50.5t-72 -129.5q0 -16 -9 -24.5t-17 -9.5t-21 -1h-29q-41 0 -41 41q0 91 54 157.5t133.5 97.5t169.5 31q104 0 185 -35t132 -113.5t51 -190.5v-664q0 -17 -12 -29t-29 -12h-18
q-21 0 -29 14l-6.5 13t-7.5 14.5t-10.5 10.5t-16.5 5q-11 0 -37 -12t-54.5 -26.5t-77.5 -26.5t-101 -12q-180 0 -276.5 94t-96.5 233zM209 309q0 -104 69.5 -159.5t172.5 -55.5q141 0 217.5 66t76.5 190v123q0 21 -20 21h-299q-91 0 -154 -49t-63 -136zM274 1372
q0 94 66 159.5t160 65.5t159.5 -65.5t65.5 -159.5t-65.5 -159.5t-159.5 -65.5t-160 65.5t-66 159.5zM385 1372q0 -47 34 -81t81 -34q49 0 80.5 33.5t31.5 81.5q0 50 -31.5 81.5t-80.5 31.5q-48 0 -81.5 -32t-33.5 -81z" />
    <glyph glyph-name="ae" unicode="&#xe6;" horiz-adv-x="1665" 
d="M88 287q0 131 90.5 215t247.5 84h293q20 0 20 20v101q0 99 -69.5 162t-177.5 63q-96 0 -168 -50.5t-72 -129.5q0 -16 -9 -24.5t-17 -9.5t-21 -1h-29q-41 0 -41 41q0 91 54 157.5t133.5 97.5t169.5 31q85 0 161.5 -35.5t132.5 -103.5q10 -13 30 -13t32 13q122 139 319 139
q171 0 290.5 -120t119.5 -289v-123q0 -17 -12 -29t-29 -12h-649q-21 0 -21 -20q0 -157 75 -254t226 -97q110 0 179.5 56t95.5 137q10 35 47 35h41q17 0 27.5 -10.5t7.5 -30.5q-19 -135 -129.5 -221t-268.5 -86q-185 0 -309 124q-18 18 -39.5 18t-40.5 -18
q-65 -65 -150 -94.5t-167 -29.5q-182 0 -277.5 85t-95.5 222zM209 289q0 -102 67.5 -148.5t174.5 -46.5q141 0 217.5 66t76.5 190v101q0 20 -20 20h-299q-92 0 -154.5 -47.5t-62.5 -134.5zM870 606q0 -20 21 -20h553q20 0 20 20q0 152 -82 235t-213 83q-139 0 -219 -82
t-80 -236z" />
    <glyph glyph-name="ccedilla" unicode="&#xe7;" 
d="M92 369q-10 143 0 286q12 167 123.5 278t290.5 111q167 0 276 -103t109 -245q0 -18 -9 -29.5t-26 -11.5h-47q-15 0 -27 8.5t-12 24.5q0 97 -71.5 166.5t-192.5 69.5q-73 0 -129.5 -26t-89 -68t-49.5 -86t-21 -89q-14 -143 0 -286q4 -45 21 -89t49.5 -86t89 -68t129.5 -26
q125 0 193.5 72t68.5 162q0 35 39 35h43q17 0 29 -12t12 -29q0 -142 -109 -245t-276 -103q-179 0 -290.5 111t-123.5 278zM385 -373l78 248q9 33 39 33h55q19 0 27.5 -11t5.5 -26l-58 -248q-9 -33 -38 -33h-76q-19 0 -28.5 11.5t-4.5 25.5z" />
    <glyph glyph-name="egrave" unicode="&#xe8;" horiz-adv-x="1007" 
d="M92 369q-10 143 0 286q12 167 126.5 278t293.5 111q171 0 290.5 -120t119.5 -289v-131q0 -17 -12 -29t-29 -12h-650q-20 0 -20 -21q0 -156 74.5 -249t226.5 -93q110 0 179 55.5t95 137.5q10 35 48 35h40q17 0 27.5 -10.5t7.5 -30.5q-19 -135 -129 -221t-268 -86
q-179 0 -293.5 111t-126.5 278zM212 1478q7 17 26 17h118q30 0 54 -33l155 -223q8 -11 -0.5 -26t-27.5 -15h-39q-37 0 -62 25l-221 229q-10 9 -3 26zM215 598q0 -20 21 -20h552q21 0 21 20q0 153 -82.5 239.5t-212.5 86.5q-138 0 -218.5 -85.5t-80.5 -240.5z" />
    <glyph glyph-name="eacute" unicode="&#xe9;" horiz-adv-x="1007" 
d="M92 369q-10 143 0 286q12 167 126.5 278t293.5 111q171 0 290.5 -120t119.5 -289v-131q0 -17 -12 -29t-29 -12h-650q-20 0 -20 -21q0 -156 74.5 -249t226.5 -93q110 0 179 55.5t95 137.5q10 35 48 35h40q17 0 27.5 -10.5t7.5 -30.5q-19 -135 -129 -221t-268 -86
q-179 0 -293.5 111t-126.5 278zM215 598q0 -20 21 -20h552q21 0 21 20q0 153 -82.5 239.5t-212.5 86.5q-138 0 -218.5 -85.5t-80.5 -240.5zM418 1239l155 223q24 33 54 33h118q19 0 26 -17t-3 -26l-221 -229q-25 -25 -62 -25h-39q-19 0 -27.5 15t-0.5 26z" />
    <glyph glyph-name="ecircumflex" unicode="&#xea;" horiz-adv-x="1007" 
d="M92 369q-10 143 0 286q12 167 126.5 278t293.5 111q171 0 290.5 -120t119.5 -289v-131q0 -17 -12 -29t-29 -12h-650q-20 0 -20 -21q0 -156 74.5 -249t226.5 -93q110 0 179 55.5t95 137.5q10 35 48 35h40q17 0 27.5 -10.5t7.5 -30.5q-19 -135 -129 -221t-268 -86
q-179 0 -293.5 111t-126.5 278zM181 1215q-7 17 3 26l242 229q25 25 61 25h45q35 0 60 -25l242 -229q10 -9 3 -26t-26 -17h-88q-31 0 -64 33l-137 133q-14 14 -28 0l-136 -133q-33 -33 -63 -33h-88q-19 0 -26 17zM215 598q0 -20 21 -20h552q21 0 21 20q0 153 -82.5 239.5
t-212.5 86.5q-138 0 -218.5 -85.5t-80.5 -240.5z" />
    <glyph glyph-name="edieresis" unicode="&#xeb;" horiz-adv-x="1007" 
d="M92 369q-10 143 0 286q12 167 126.5 278t293.5 111q171 0 290.5 -120t119.5 -289v-131q0 -17 -12 -29t-29 -12h-650q-20 0 -20 -21q0 -156 74.5 -249t226.5 -93q110 0 179 55.5t95 137.5q10 35 48 35h40q17 0 27.5 -10.5t7.5 -30.5q-19 -135 -129 -221t-268 -86
q-179 0 -293.5 111t-126.5 278zM215 598q0 -20 21 -20h552q21 0 21 20q0 153 -82.5 239.5t-212.5 86.5q-138 0 -218.5 -85.5t-80.5 -240.5zM231 1307v108q0 12 10 22.5t23 10.5h107q13 0 22.5 -10.5t9.5 -22.5v-108q0 -14 -9.5 -23.5t-22.5 -9.5h-107q-14 0 -23.5 10
t-9.5 23zM582 1307v108q0 12 9.5 22.5t22.5 10.5h107q13 0 23 -10.5t10 -22.5v-108q0 -13 -10 -23t-23 -10h-107q-13 0 -22.5 9.5t-9.5 23.5z" />
    <glyph glyph-name="igrave" unicode="&#xec;" horiz-adv-x="438" 
d="M-40 1478q7 17 26 17h118q30 0 54 -33l155 -223q8 -11 -0.5 -26t-27.5 -15h-39q-37 0 -62 25l-221 229q-10 9 -3 26zM150 41v942q0 17 11.5 29t28.5 12h58q17 0 29 -12t12 -29v-942q0 -17 -12 -29t-29 -12h-58q-17 0 -28.5 12t-11.5 29z" />
    <glyph glyph-name="iacute" unicode="&#xed;" horiz-adv-x="438" 
d="M125 1239l156 223q8 11 12 15.5t15.5 11t25.5 6.5h119q19 0 25.5 -17t-3.5 -26l-221 -229q-25 -25 -61 -25h-39q-19 0 -28 15t-1 26zM150 41v942q0 17 11.5 29t28.5 12h58q17 0 29 -12t12 -29v-942q0 -17 -12 -29t-29 -12h-58q-17 0 -28.5 12t-11.5 29z" />
    <glyph glyph-name="icircumflex" unicode="&#xee;" horiz-adv-x="438" 
d="M-107.5 1215q-6.5 17 3.5 26l241 229q25 25 62 25h45q34 0 59 -25l242 -229q10 -9 3 -26t-26 -17h-88q-30 0 -63 33l-138 133q-14 14 -28 0l-135 -133q-33 -33 -64 -33h-88q-19 0 -25.5 17zM150 41v942q0 17 11.5 29t28.5 12h58q17 0 29 -12t12 -29v-942q0 -17 -12 -29
t-29 -12h-58q-17 0 -28.5 12t-11.5 29z" />
    <glyph glyph-name="idieresis" unicode="&#xef;" horiz-adv-x="438" 
d="M-41 1307v108q0 12 10 22.5t23 10.5h106q13 0 23 -10.5t10 -22.5v-108q0 -13 -9.5 -23t-23.5 -10h-106q-14 0 -23.5 10t-9.5 23zM150 41v942q0 17 11.5 29t28.5 12h58q17 0 29 -12t12 -29v-942q0 -17 -12 -29t-29 -12h-58q-17 0 -28.5 12t-11.5 29zM309 1307v108
q0 12 10 22.5t23 10.5h107q13 0 22.5 -10.5t9.5 -22.5v-108q0 -14 -9.5 -23.5t-22.5 -9.5h-107q-14 0 -23.5 10t-9.5 23z" />
    <glyph glyph-name="eth" unicode="&#xf0;" horiz-adv-x="1009" 
d="M78 369q-7 92 0 184q12 167 126.5 278t293.5 111q158 0 252 -100q8 -8 15 -5t7 13q-6 184 -96 334q-4 8 -11 10t-10 -2l-176 -102q-17 -10 -37 -2t-20 30v23q0 15 1 22t8 16.5t22 18.5l100 57q12 8 7.5 19t-17.5 16q-61 23 -129 23h-74q-17 0 -29 12t-12 29v39
q0 17 12 29t29 12h74q133 0 250 -82q11 -5 18 0l149 92q15 10 33.5 0.5t18.5 -29.5v-35q0 -20 -6 -30t-21 -19l-86 -55q-15 -11 -8 -21q111 -150 139 -395q29 -268 6 -491q-18 -170 -125 -279.5t-284 -109.5q-179 0 -293.5 111t-126.5 278zM205 369q3 -35 13.5 -70
t33.5 -71.5t55.5 -64.5t82 -45.5t108.5 -17.5q58 0 107 17.5t81.5 45.5t56 64.5t34.5 71.5t14 70q7 92 0 184q-3 44 -21 88.5t-51.5 86t-91 67.5t-129.5 26q-74 0 -131.5 -26t-90.5 -67.5t-50.5 -86t-20.5 -88.5q-7 -92 0 -184z" />
    <glyph glyph-name="ntilde" unicode="&#xf1;" horiz-adv-x="987" 
d="M123 41v942q0 17 12 29t29 12h33q14 0 28 -14q1 -2 5 -6.5t6 -6.5t5.5 -6t6.5 -6t7 -4t9 -3t10 -1q22 0 52 16.5t78 33.5t114 17q166 0 266.5 -93t100.5 -263v-647q0 -17 -12 -29t-29 -12h-39q-17 0 -29 12t-12 29v647q0 122 -70.5 179t-189.5 57q-110 0 -185 -65.5
t-75 -160.5v-657q0 -17 -12 -29t-29 -12h-39q-17 0 -29 12t-12 29zM231 1282v49q0 41 43 73t103 32q65 0 141 -26t146 -26q60 0 94 43q12 17 31.5 8.5t19.5 -36.5v-49q0 -41 -42.5 -73t-102.5 -32q-64 0 -140 25.5t-147 25.5q-57 0 -94 -43q-12 -15 -32 -6.5t-20 35.5z" />
    <glyph glyph-name="ograve" unicode="&#xf2;" horiz-adv-x="1024" 
d="M92 369q-10 143 0 286q12 167 123.5 278t290.5 111t290.5 -111t123.5 -278q10 -143 0 -286q-12 -167 -123.5 -278t-290.5 -111t-290.5 111t-123.5 278zM214 1478q7 17 26 17h118q30 0 54 -33l155 -223q8 -11 -0.5 -26t-27.5 -15h-39q-37 0 -62 25l-221 229q-10 9 -3 26z
M217 369q4 -45 21 -89t49.5 -86t89 -68t129.5 -26t129.5 26t89 68t49.5 86t21 89q14 143 0 286q-4 45 -21 89t-49.5 86t-89 68t-129.5 26t-129.5 -26t-89 -68t-49.5 -86t-21 -89q-14 -143 0 -286z" />
    <glyph glyph-name="oacute" unicode="&#xf3;" horiz-adv-x="1024" 
d="M92 369q-10 143 0 286q12 167 123.5 278t290.5 111t290.5 -111t123.5 -278q10 -143 0 -286q-12 -167 -123.5 -278t-290.5 -111t-290.5 111t-123.5 278zM217 369q4 -45 21 -89t49.5 -86t89 -68t129.5 -26t129.5 26t89 68t49.5 86t21 89q14 143 0 286q-4 45 -21 89
t-49.5 86t-89 68t-129.5 26t-129.5 -26t-89 -68t-49.5 -86t-21 -89q-14 -143 0 -286zM420 1239l155 223q24 33 54 33h119q19 0 25.5 -17t-3.5 -26l-221 -229q-25 -25 -62 -25h-38q-19 0 -28 15t-1 26z" />
    <glyph glyph-name="ocircumflex" unicode="&#xf4;" horiz-adv-x="1024" 
d="M92 369q-10 143 0 286q12 167 123.5 278t290.5 111t290.5 -111t123.5 -278q10 -143 0 -286q-12 -167 -123.5 -278t-290.5 -111t-290.5 111t-123.5 278zM183 1215q-7 17 3 26l242 229q25 25 61 25h46q34 0 59 -25l242 -229q10 -9 3 -26t-26 -17h-88q-30 0 -63 33l-138 133
q-14 14 -28 0l-136 -133q-33 -33 -63 -33h-88q-19 0 -26 17zM217 369q4 -45 21 -89t49.5 -86t89 -68t129.5 -26t129.5 26t89 68t49.5 86t21 89q14 143 0 286q-4 45 -21 89t-49.5 86t-89 68t-129.5 26t-129.5 -26t-89 -68t-49.5 -86t-21 -89q-14 -143 0 -286z" />
    <glyph glyph-name="otilde" unicode="&#xf5;" horiz-adv-x="1024" 
d="M92 369q-10 143 0 286q12 167 123.5 278t290.5 111t290.5 -111t123.5 -278q10 -143 0 -286q-12 -167 -123.5 -278t-290.5 -111t-290.5 111t-123.5 278zM217 369q4 -45 21 -89t49.5 -86t89 -68t129.5 -26t129.5 26t89 68t49.5 86t21 89q14 143 0 286q-4 45 -21 89
t-49.5 86t-89 68t-129.5 26t-129.5 -26t-89 -68t-49.5 -86t-21 -89q-14 -143 0 -286zM223 1282v49q0 41 43 73t103 32q65 0 140 -26t146 -26q61 0 95 43q12 17 31.5 8.5t19.5 -36.5v-49q0 -41 -43 -73t-103 -32q-65 0 -140 25.5t-146 25.5q-58 0 -95 -43q-12 -15 -31.5 -6.5
t-19.5 35.5z" />
    <glyph glyph-name="odieresis" unicode="&#xf6;" horiz-adv-x="1024" 
d="M92 369q-10 143 0 286q12 167 123.5 278t290.5 111t290.5 -111t123.5 -278q10 -143 0 -286q-12 -167 -123.5 -278t-290.5 -111t-290.5 111t-123.5 278zM217 369q4 -45 21 -89t49.5 -86t89 -68t129.5 -26t129.5 26t89 68t49.5 86t21 89q14 143 0 286q-4 45 -21 89
t-49.5 86t-89 68t-129.5 26t-129.5 -26t-89 -68t-49.5 -86t-21 -89q-14 -143 0 -286zM233 1307v108q0 12 10 22.5t23 10.5h107q13 0 23 -10.5t10 -22.5v-108q0 -13 -10 -23t-23 -10h-107q-14 0 -23.5 10t-9.5 23zM584 1307v108q0 12 9.5 22.5t22.5 10.5h107q13 0 23 -10.5
t10 -22.5v-108q0 -13 -10 -23t-23 -10h-107q-13 0 -22.5 9.5t-9.5 23.5z" />
    <glyph glyph-name="divide" unicode="&#xf7;" horiz-adv-x="1064" 
d="M102 483v62q0 17 12 29t29 12h779q17 0 29 -12t12 -29v-62q0 -17 -12 -29t-29 -12h-779q-17 0 -29 12t-12 29zM420 41v143q0 17 12 29t29 12h143q17 0 29 -12t12 -29v-143q0 -17 -12 -29t-29 -12h-143q-17 0 -29 12t-12 29zM420 819v144q0 17 12 29t29 12h143
q17 0 29 -12t12 -29v-144q0 -17 -12 -29t-29 -12h-143q-17 0 -29 12t-12 29z" />
    <glyph glyph-name="oslash" unicode="&#xf8;" horiz-adv-x="1013" 
d="M65 15.5q-6 15.5 9 35.5l78 99q8 9 2 20q-53 86 -62 199q-10 143 0 286q12 167 123.5 278t290.5 111q156 0 268 -94q7 -7 14 2l33 41q25 31 45 31h54q21 0 28.5 -16t-6.5 -35l-82 -105q-8 -10 -2 -16q53 -86 62 -197q10 -143 0 -286q-12 -167 -123.5 -278t-290.5 -111
q-157 0 -266 88q-7 7 -15 -2l-26 -35q-25 -31 -47 -31h-60q-21 0 -27 15.5zM217 369q3 -41 21 -88q7 -14 14 -5l448 564q6 8 0 14q-81 70 -194 70q-73 0 -129.5 -26t-89 -68t-49.5 -86t-21 -89q-14 -143 0 -286zM317 162q75 -62 189 -62q73 0 129.5 26t89 68t49.5 86t21 89
q14 143 0 286q-6 44 -23 88q-5 9 -12 0l-443 -563q-8 -10 0 -18z" />
    <glyph glyph-name="ugrave" unicode="&#xf9;" horiz-adv-x="976" 
d="M113 336v647q0 17 12 29t29 12h39q17 0 28.5 -12t11.5 -29v-647q0 -122 71 -179t190 -57q110 0 185 65.5t75 160.5v657q0 17 12 29t29 12h39q17 0 28.5 -12t11.5 -29v-942q0 -17 -11.5 -29t-28.5 -12h-33q-15 0 -29 14q-1 2 -5 6.5t-6 6.5t-5.5 6t-6.5 6t-7 4t-9 3t-10 1
q-22 0 -52 -16.5t-78 -33.5t-114 -17q-166 0 -266 92.5t-100 263.5zM230 1478q7 17 26 17h119q14 0 25.5 -6.5t15.5 -11t12 -15.5l156 -223q8 -11 -1 -26t-28 -15h-39q-36 0 -61 25l-222 229q-10 9 -3 26z" />
    <glyph glyph-name="uacute" unicode="&#xfa;" horiz-adv-x="976" 
d="M113 336v647q0 17 12 29t29 12h39q17 0 28.5 -12t11.5 -29v-647q0 -122 71 -179t190 -57q110 0 185 65.5t75 160.5v657q0 17 12 29t29 12h39q17 0 28.5 -12t11.5 -29v-942q0 -17 -11.5 -29t-28.5 -12h-33q-15 0 -29 14q-1 2 -5 6.5t-6 6.5t-5.5 6t-6.5 6t-7 4t-9 3t-10 1
q-22 0 -52 -16.5t-78 -33.5t-114 -17q-166 0 -266 92.5t-100 263.5zM436 1239l156 223q8 11 12 15.5t15.5 11t25.5 6.5h119q19 0 25.5 -17t-3.5 -26l-221 -229q-25 -25 -61 -25h-39q-19 0 -28 15t-1 26z" />
    <glyph glyph-name="ucircumflex" unicode="&#xfb;" horiz-adv-x="976" 
d="M113 336v647q0 17 12 29t29 12h39q17 0 28.5 -12t11.5 -29v-647q0 -122 71 -179t190 -57q110 0 185 65.5t75 160.5v657q0 17 12 29t29 12h39q17 0 28.5 -12t11.5 -29v-942q0 -17 -11.5 -29t-28.5 -12h-33q-15 0 -29 14q-1 2 -5 6.5t-6 6.5t-5.5 6t-6.5 6t-7 4t-9 3t-10 1
q-22 0 -52 -16.5t-78 -33.5t-114 -17q-166 0 -266 92.5t-100 263.5zM158.5 1215q-6.5 17 3.5 26l241 229q25 25 62 25h45q34 0 59 -25l242 -229q10 -9 3 -26t-26 -17h-88q-30 0 -63 33l-137 133q-14 14 -29 0l-135 -133q-33 -33 -64 -33h-88q-19 0 -25.5 17z" />
    <glyph glyph-name="udieresis" unicode="&#xfc;" horiz-adv-x="976" 
d="M113 336v647q0 17 12 29t29 12h39q17 0 28.5 -12t11.5 -29v-647q0 -122 71 -179t190 -57q110 0 185 65.5t75 160.5v657q0 17 12 29t29 12h39q17 0 28.5 -12t11.5 -29v-942q0 -17 -11.5 -29t-28.5 -12h-33q-15 0 -29 14q-1 2 -5 6.5t-6 6.5t-5.5 6t-6.5 6t-7 4t-9 3t-10 1
q-22 0 -52 -16.5t-78 -33.5t-114 -17q-166 0 -266 92.5t-100 263.5zM229 1307v108q0 12 10 22.5t23 10.5h107q13 0 22.5 -10.5t9.5 -22.5v-108q0 -14 -9.5 -23.5t-22.5 -9.5h-107q-14 0 -23.5 10t-9.5 23zM580 1307v108q0 12 9.5 22.5t22.5 10.5h107q13 0 23 -10.5t10 -22.5
v-108q0 -13 -10 -23t-23 -10h-107q-13 0 -22.5 9.5t-9.5 23.5z" />
    <glyph glyph-name="yacute" unicode="&#xfd;" horiz-adv-x="946" 
d="M14 977q-6 16 5 31.5t34 15.5h58q28 0 39 -31l315 -753q3 -8 8 -8t8 8l275 753q11 31 39 31h57q23 0 34 -15.5t5 -31.5l-520 -1356q-11 -31 -39 -31h-45q-23 0 -34.5 16t-4.5 32l151 411q6 16 2 27zM381 1239l156 223q8 11 12 15.5t15.5 11t25.5 6.5h119q19 0 25.5 -17
t-3.5 -26l-221 -229q-25 -25 -61 -25h-39q-19 0 -28 15t-1 26z" />
    <glyph glyph-name="thorn" unicode="&#xfe;" horiz-adv-x="1015" 
d="M133 -369v1776q0 17 12 29t29 12h39q17 0 29 -12t12 -29v-371q0 -15 12.5 -29t32.5 -14q14 0 90.5 25.5t130.5 25.5q158 0 267.5 -112.5t121.5 -276.5q10 -143 0 -286q-12 -164 -121.5 -276.5t-267.5 -112.5q-54 0 -130.5 25.5t-90.5 25.5q-20 0 -32.5 -14t-12.5 -29
v-357q0 -17 -12 -29t-29 -12h-39q-17 0 -29 12t-12 29zM258 369q3 -36 12 -70.5t28.5 -71t46.5 -64t70 -45.5t95 -18q71 0 124.5 26t83.5 68.5t45.5 85.5t20.5 89q17 143 0 286q-5 46 -20.5 89t-45 85.5t-83.5 68.5t-125 26q-52 0 -95 -18t-70 -45.5t-46.5 -64t-28.5 -71
t-12 -70.5q-14 -143 0 -286z" />
    <glyph glyph-name="ydieresis" unicode="&#xff;" horiz-adv-x="946" 
d="M14 977q-6 16 5 31.5t34 15.5h58q28 0 39 -31l315 -753q3 -8 8 -8t8 8l275 753q11 31 39 31h57q23 0 34 -15.5t5 -31.5l-520 -1356q-11 -31 -39 -31h-45q-23 0 -34.5 16t-4.5 32l151 411q6 16 2 27zM211 1307v108q0 12 10 22.5t23 10.5h106q13 0 23 -10.5t10 -22.5v-108
q0 -13 -9.5 -23t-23.5 -10h-106q-14 0 -23.5 10t-9.5 23zM561 1307v108q0 12 10 22.5t23 10.5h106q13 0 23 -10.5t10 -22.5v-108q0 -13 -9.5 -23t-23.5 -10h-106q-14 0 -23.5 10t-9.5 23z" />
    <glyph glyph-name="OE" unicode="&#x152;" horiz-adv-x="1738" 
d="M94 717.5q0 183.5 17 306.5q12 85 47 160.5t91 135.5t138 95t180 35q179 0 305 -119q9 -11 23 -7t14 28v41q0 17 12 29t29 12h641q17 0 29 -12t12 -29v-50q0 -17 -12 -28.5t-29 -11.5h-530q-9 0 -15 -6t-6 -15v-465q0 -20 21 -20h508q17 0 29 -12t12 -29v-47
q0 -17 -12 -29t-29 -12h-508q-8 0 -14.5 -5t-6.5 -12v-499q0 -9 6 -15t15 -6h534q17 0 29 -12t12 -29v-49q0 -17 -12 -29t-29 -12h-645q-17 0 -29 12t-12 29v33q0 24 -14 27.5t-23 -7.5q-116 -110 -305 -110q-185 0 -307.5 114t-148.5 312q-17 124 -17 307.5zM229 717
q0 -181 19 -307q5 -39 17.5 -77t38 -78t60 -70.5t87.5 -50t116 -19.5t116 19.5t87.5 50t60 70.5t38.5 78t18 77q19 126 19 307t-19 307q-19 124 -101 209.5t-219 85.5t-218.5 -85.5t-100.5 -209.5q-19 -126 -19 -307z" />
    <glyph glyph-name="oe" unicode="&#x153;" horiz-adv-x="1722" 
d="M92 369q-10 143 0 286q12 167 123.5 278t290.5 111q102 0 184 -37.5t135 -105.5q14 -18 39 -18t39 18q55 68 138.5 105.5t185.5 37.5q171 0 290 -120t119 -289v-131q0 -17 -12 -29t-29 -12h-649q-20 0 -20 -21q0 -156 74.5 -249t226.5 -93q110 0 179 55.5t95 137.5
q10 35 47 35h41q17 0 27.5 -10.5t7.5 -30.5q-19 -135 -129 -221t-268 -86q-103 0 -187 37t-137 104q-13 19 -39 19t-39 -19q-53 -67 -135.5 -104t-183.5 -37q-179 0 -290.5 111t-123.5 278zM217 369q4 -45 21 -89t49.5 -86t89 -68t129.5 -26t129.5 26t89 68t49.5 86t21 89
q14 143 0 286q-4 45 -21 89t-49.5 86t-89 68t-129.5 26t-129.5 -26t-89 -68t-49.5 -86t-21 -89q-14 -143 0 -286zM930 598q0 -20 20 -20h553q21 0 21 20q0 153 -82.5 239.5t-212.5 86.5q-138 0 -218.5 -85.5t-80.5 -240.5z" />
    <glyph glyph-name="Ydieresis" unicode="&#x178;" horiz-adv-x="905" 
d="M25 1376q-9 23 1 40.5t31 17.5h66q28 0 39 -31l284 -731q3 -8 8.5 -8t8.5 8l280 731q11 31 39 31h66q21 0 31.5 -17.5t1.5 -40.5l-359 -882v-453q0 -17 -12 -29t-29 -12h-53q-17 0 -29 12t-12 29v451zM184 1593v109q0 12 10 22.5t23 10.5h107q13 0 22.5 -10.5t9.5 -22.5
v-109q0 -13 -9 -22.5t-23 -9.5h-107q-14 0 -23.5 9.5t-9.5 22.5zM535 1593v109q0 12 9.5 22.5t22.5 10.5h107q13 0 23 -10.5t10 -22.5v-109q0 -13 -9.5 -22.5t-23.5 -9.5h-107q-13 0 -22.5 9.5t-9.5 22.5z" />
    <glyph glyph-name="circumflex" unicode="&#x2c6;" horiz-adv-x="1044" 
d="M195.5 1215q-6.5 17 3.5 26l241 229q25 25 62 25h45q34 0 59 -25l242 -229q10 -9 3 -26t-26 -17h-88q-30 0 -63 33l-137 133q-15 14 -29 0l-135 -133q-33 -33 -64 -33h-88q-19 0 -25.5 17z" />
    <glyph glyph-name="tilde" unicode="&#x2dc;" horiz-adv-x="1032" 
d="M227 1282v49q0 41 43 73t103 32q65 0 140 -26t146 -26q61 0 95 43q12 17 31.5 8.5t19.5 -36.5v-49q0 -41 -43 -73t-103 -32q-65 0 -140 25.5t-146 25.5q-57 0 -94 -43q-12 -15 -32 -6.5t-20 35.5z" />
    <glyph glyph-name="uni2000" unicode="&#x2000;" horiz-adv-x="973" 
 />
    <glyph glyph-name="uni2001" unicode="&#x2001;" horiz-adv-x="1946" 
 />
    <glyph glyph-name="uni2002" unicode="&#x2002;" horiz-adv-x="973" 
 />
    <glyph glyph-name="uni2003" unicode="&#x2003;" horiz-adv-x="1946" 
 />
    <glyph glyph-name="uni2004" unicode="&#x2004;" horiz-adv-x="648" 
 />
    <glyph glyph-name="uni2005" unicode="&#x2005;" horiz-adv-x="486" 
 />
    <glyph glyph-name="uni2006" unicode="&#x2006;" horiz-adv-x="324" 
 />
    <glyph glyph-name="uni2007" unicode="&#x2007;" horiz-adv-x="324" 
 />
    <glyph glyph-name="uni2008" unicode="&#x2008;" horiz-adv-x="243" 
 />
    <glyph glyph-name="uni2009" unicode="&#x2009;" horiz-adv-x="389" 
 />
    <glyph glyph-name="uni200A" unicode="&#x200a;" horiz-adv-x="108" 
 />
    <glyph glyph-name="uni2010" unicode="&#x2010;" horiz-adv-x="927" 
d="M143 510v72q0 17 12 29t29 12h559q17 0 29 -12t12 -29v-72q0 -17 -12 -29t-29 -12h-559q-17 0 -29 12t-12 29z" />
    <glyph glyph-name="uni2011" unicode="&#x2011;" horiz-adv-x="927" 
d="M143 510v72q0 17 12 29t29 12h559q17 0 29 -12t12 -29v-72q0 -17 -12 -29t-29 -12h-559q-17 0 -29 12t-12 29z" />
    <glyph glyph-name="figuredash" unicode="&#x2012;" horiz-adv-x="927" 
d="M143 510v72q0 17 12 29t29 12h559q17 0 29 -12t12 -29v-72q0 -17 -12 -29t-29 -12h-559q-17 0 -29 12t-12 29z" />
    <glyph glyph-name="endash" unicode="&#x2013;" horiz-adv-x="1146" 
d="M143 504v61q0 17 12 29t29 12h779q17 0 29 -12t12 -29v-61q0 -17 -12 -29t-29 -12h-779q-17 0 -29 12t-12 29z" />
    <glyph glyph-name="emdash" unicode="&#x2014;" horiz-adv-x="1454" 
d="M143 504v61q0 17 12 29t29 12h1086q17 0 29 -12t12 -29v-61q0 -17 -12 -29t-29 -12h-1086q-17 0 -29 12t-12 29z" />
    <glyph glyph-name="quoteleft" unicode="&#x2018;" horiz-adv-x="423" 
d="M86 1024v154q0 26 6 48t10 29t17 27l82 115q1 1 4 5.5t4.5 6.5t5 6t6 6t7 5t9 4.5t10.5 2.5t13 1h21q19 0 29 -16t1 -34l-78 -145q-6 -11 -0.5 -21t17.5 -10h20q17 0 29 -12t12 -29v-143q0 -17 -12 -29t-29 -12h-143q-17 0 -29 12t-12 29z" />
    <glyph glyph-name="quoteright" unicode="&#x2019;" horiz-adv-x="423" 
d="M88 1032l78 146q6 10 1 20t-17 10h-21q-17 0 -29 12t-12 29v144q0 17 12 29t29 12h143q17 0 29 -12t12 -29v-154q0 -27 -5.5 -48t-10 -29.5t-16.5 -26.5l-82 -115l-3 -4q-4 -5 -4.5 -6t-4 -5.5t-5.5 -6l-6 -4.5t-7.5 -4.5t-8 -3.5t-10 -2.5t-11.5 -0.5h-20
q-19 0 -29.5 15.5t-1.5 33.5z" />
    <glyph glyph-name="quotesinglbase" unicode="&#x201a;" horiz-adv-x="550" 
d="M150 41v143q0 17 11.5 29t28.5 12h144q17 0 29 -12t12 -29v-153q0 -26 -6 -48t-10.5 -30t-16.5 -27l-82 -114q-1 -1 -4 -5.5t-4.5 -6.5t-5 -6t-6 -6t-7 -5t-9 -4.5t-10.5 -2.5t-13 -1h-21q-19 0 -29 15.5t-1 33.5l77 145q6 11 1 21t-17 10h-21q-17 0 -28.5 12t-11.5 29z
" />
    <glyph glyph-name="quotedblleft" unicode="&#x201c;" horiz-adv-x="833" 
d="M86 1024v154q0 26 6 48t10 29t17 27l82 115q1 1 4 5.5t4.5 6.5t5 6t6 6t7 5t9 4.5t10.5 2.5t13 1h21q19 0 29 -16t1 -34l-78 -145q-6 -11 -0.5 -21t17.5 -10h20q17 0 29 -12t12 -29v-143q0 -17 -12 -29t-29 -12h-143q-17 0 -29 12t-12 29zM418 1024v154q0 26 6 48t10 29
t17 27l81 115l4 5q3 4 3.5 5t4 5.5t5.5 6l6 4.5t7.5 4.5t8 3.5t10 2.5t11.5 0.5h20q19 0 29.5 -16t1.5 -34l-78 -145q-6 -11 -0.5 -21t17.5 -10h20q17 0 29 -12t12 -29v-143q0 -17 -12 -29t-29 -12h-143q-17 0 -29 12t-12 29z" />
    <glyph glyph-name="quotedblright" unicode="&#x201d;" horiz-adv-x="833" 
d="M88 1032l78 146q6 10 1 20t-17 10h-21q-17 0 -29 12t-12 29v144q0 17 12 29t29 12h143q17 0 29 -12t12 -29v-154q0 -27 -5.5 -48t-10 -29.5t-16.5 -26.5l-82 -115l-3 -4q-4 -5 -4.5 -6t-4 -5.5t-5.5 -6l-6 -4.5t-7.5 -4.5t-8 -3.5t-10 -2.5t-11.5 -0.5h-20
q-19 0 -29.5 15.5t-1.5 33.5zM420 1032l78 146q6 10 0.5 20t-17.5 10h-20q-17 0 -29 12t-12 29v144q0 17 12 29t29 12h143q17 0 29 -12t12 -29v-154q0 -26 -6 -48t-10 -29t-17 -27l-82 -115q-1 -1 -4 -5.5t-4.5 -6.5t-5 -6t-6 -6t-7 -5t-9 -4.5t-10.5 -2.5t-13 -1h-20
q-19 0 -29.5 15.5t-1.5 33.5z" />
    <glyph glyph-name="quotedblbase" unicode="&#x201e;" horiz-adv-x="935" 
d="M129 41v143q0 17 12 29t29 12h143q17 0 29 -12t12 -29v-153q0 -27 -5.5 -48t-10.5 -30t-16 -27l-82 -114l-4 -4q-3 -5 -3.5 -6t-4 -5.5t-5.5 -6l-6 -4.5t-7.5 -4.5t-8 -3.5t-10 -2.5t-11.5 -0.5h-20q-19 0 -29.5 15.5t-1.5 33.5l78 145q6 11 0.5 21t-17.5 10h-20
q-17 0 -29 12t-12 29zM461 41v143q0 17 12 29t29 12h143q17 0 29 -12t12 -29v-153q0 -26 -6 -48t-10.5 -30t-16.5 -27l-82 -114q-1 -1 -4 -5.5t-4.5 -6.5t-5 -6t-6 -6t-7 -5t-9 -4.5t-10.5 -2.5t-13 -1h-20q-19 0 -29.5 15.5t-1.5 33.5l78 145q6 11 0.5 21t-17.5 10h-20
q-17 0 -29 12t-12 29z" />
    <glyph glyph-name="bullet" unicode="&#x2022;" horiz-adv-x="772" 
d="M172 446v316q0 17 12 29t29 12h315q17 0 29 -12t12 -29v-316q0 -17 -12 -28.5t-29 -11.5h-315q-17 0 -29 11.5t-12 28.5z" />
    <glyph glyph-name="ellipsis" unicode="&#x2026;" horiz-adv-x="1411" 
d="M109 41v156q0 17 12 29t29 12h155q17 0 29 -12t12 -29v-156q0 -17 -12 -29t-29 -12h-155q-17 0 -29 12t-12 29zM559 41v156q0 17 12 29t29 12h156q17 0 29 -12t12 -29v-156q0 -17 -12 -29t-29 -12h-156q-17 0 -29 12t-12 29zM1010 41v156q0 17 12 29t29 12h155
q17 0 29 -12t12 -29v-156q0 -17 -12 -29t-29 -12h-155q-17 0 -29 12t-12 29z" />
    <glyph glyph-name="uni202F" unicode="&#x202f;" horiz-adv-x="389" 
 />
    <glyph glyph-name="guilsinglleft" unicode="&#x2039;" horiz-adv-x="643" 
d="M104 532.5q0 11.5 11 28.5l196 330q19 31 51 31h39q31 0 40.5 -18t-7.5 -50l-174 -297q-9 -13 -9 -23.5t9 -25.5l174 -297q17 -32 7.5 -50t-40.5 -18h-39q-32 0 -51 31l-196 330q-11 17 -11 28.5z" />
    <glyph glyph-name="guilsinglright" unicode="&#x203a;" horiz-adv-x="643" 
d="M148 161q-10 18 8 50l174 297q9 15 9 25.5t-9 23.5l-174 297q-18 32 -8 50t40 18h39q33 0 52 -31l196 -330q11 -17 11 -28.5t-11 -28.5l-196 -330q-19 -31 -52 -31h-39q-30 0 -40 18z" />
    <glyph glyph-name="uni205F" unicode="&#x205f;" horiz-adv-x="486" 
 />
    <glyph glyph-name="Euro" unicode="&#x20ac;" horiz-adv-x="1171" 
d="M45 553v51q0 17 12 29t29 12h109q16 0 16 14v150q0 12 -10 12h-115q-17 0 -29 12t-12 29v51q0 17 12 29t29 12h119q14 0 14 13q0 121 58.5 231.5t166.5 181t238 70.5q99 0 185 -35t145 -93.5t93 -136t34 -161.5v-8q0 -17 -12 -29t-29 -12h-56q-17 0 -29 12t-12 29v8
q0 119 -89 207t-230 88q-142 0 -234 -103.5t-92 -246.5q0 -15 11 -15h374q17 0 29 -12t12 -29v-51q0 -17 -12 -29t-29 -12h-385q-12 0 -12 -14v-148q0 -14 12 -14h385q17 0 29 -12t12 -29v-51q0 -17 -12 -29t-29 -12h-376q-13 0 -13 -14q0 -78 19 -145t57 -121.5
t103.5 -85.5t150.5 -31q79 0 142.5 28.5t100.5 74t56.5 95t19.5 97.5v8q0 17 12 29t29 12h56q17 0 29 -12t12 -29v-8q0 -129 -63.5 -227.5t-166.5 -148.5t-227 -50q-92 0 -175 33t-149 95.5t-104.5 162.5t-38.5 223q0 14 -12 14h-117q-17 0 -29 12t-12 29z" />
    <glyph glyph-name="trademark" unicode="&#x2122;" horiz-adv-x="1499" 
d="M104 1348v65q0 8 6 14.5t15 6.5h471q7 0 13.5 -6.5t6.5 -14.5v-65q0 -8 -6.5 -14.5t-13.5 -6.5h-172q-10 0 -10 -10v-580q0 -9 -6.5 -14.5t-14.5 -5.5h-65q-8 0 -14.5 5.5t-6.5 14.5v580q0 10 -10 10h-172q-9 0 -15 6.5t-6 14.5zM711 737v676q0 8 6.5 14.5t13.5 6.5h117
q16 0 22 -19l134 -485q2 -4 5 -4t5 4l133 485q6 19 20 19h117q9 0 15 -6.5t6 -14.5v-676q0 -20 -21 -20h-57q-21 0 -21 20v510q0 6 -5 5q-3 -1 -3 -3l-147 -516q-5 -16 -21 -16h-43q-17 0 -22 16l-146 516q-1 2 -3 2.5t-3.5 -0.5t-1.5 -4v-510q0 -9 -6 -14.5t-14 -5.5h-60
q-8 0 -14 5.5t-6 14.5z" />
    <glyph glyph-name="uni25FC" unicode="&#x25fc;" horiz-adv-x="1024" 
d="M0 0v1024h1024v-1024h-1024z" />
    <glyph glyph-name="uniFB03" unicode="&#xfb03;" horiz-adv-x="1626" 
d="M10 934v39q0 17 12 29t29 12h178q21 0 21 20v31q0 172 96.5 277.5t251.5 105.5h10q17 0 29 -12t12 -29v-33q0 -17 -12 -29t-29 -12h-10q-111 0 -168 -76.5t-57 -191.5v-31q0 -20 20 -20h375q20 0 20 20v31q0 172 97 277.5t252 105.5h315q17 0 29 -12t12 -29v-33
q0 -17 -12 -29t-29 -12h-315q-111 0 -168.5 -76.5t-57.5 -191.5v-31q0 -20 21 -20h500q17 0 29 -12t12 -29v-932q0 -17 -12 -29t-29 -12h-41q-17 0 -29 12t-12 29v831q0 9 -6 15t-15 6h-397q-9 0 -15 -6t-6 -15v-831q0 -17 -12 -29t-29 -12h-41q-17 0 -29 12t-12 29v831
q0 21 -20 21h-375q-20 0 -20 -21v-831q0 -17 -12 -29t-29 -12h-41q-17 0 -29 12t-12 29v831q0 9 -6 15t-15 6h-178q-17 0 -29 12t-12 29z" />
    <glyph glyph-name="uniFB04" unicode="&#xfb04;" horiz-adv-x="1648" 
d="M10 934v39q0 17 12 29t29 12h178q21 0 21 20v31q0 172 96.5 277.5t251.5 105.5h10q17 0 29 -12t12 -29v-33q0 -17 -12 -29t-29 -12h-10q-111 0 -168 -76.5t-57 -191.5v-31q0 -20 20 -20h375q20 0 20 20v31q0 172 97 277.5t252 105.5h10q17 0 29 -12t12 -29v-33
q0 -17 -12 -29t-29 -12h-10q-111 0 -168.5 -76.5t-57.5 -191.5v-31q0 -20 21 -20h440q21 0 21 20v373q0 17 12 29t29 12h41q17 0 29 -12t12 -29v-1366q0 -17 -12 -29t-29 -12h-41q-17 0 -29 12t-12 29v831q0 9 -6 15t-15 6h-440q-9 0 -15 -6t-6 -15v-831q0 -17 -12 -29
t-29 -12h-41q-17 0 -29 12t-12 29v831q0 21 -20 21h-375q-20 0 -20 -21v-831q0 -17 -12 -29t-29 -12h-41q-17 0 -29 12t-12 29v831q0 9 -6 15t-15 6h-178q-17 0 -29 12t-12 29z" />
    </font>
</defs>
</svg>
